<svg xmlns="http://www.w3.org/2000/svg" xmlns:xlink="http://www.w3.org/1999/xlink" width="1920" zoomAndPan="magnify" viewBox="0 0 1440 809.999993" height="1080" preserveAspectRatio="xMidYMid meet" version="1.0"><defs><clipPath id="0752108d6a"><path d="M 872 0 L 1440 0 L 1440 791 L 872 791 Z M 872 0 " clip-rule="nonzero"/></clipPath><clipPath id="c5f93d0b0b"><path d="M 872.199219 154.117188 L 1250.464844 -224.148438 L 1887.3125 412.699219 L 1509.046875 790.964844 Z M 872.199219 154.117188 " clip-rule="nonzero"/></clipPath><clipPath id="eb0d4ed3db"><path d="M 872.199219 154.117188 L 1250.464844 -224.148438 L 1886.777344 412.164062 L 1508.507812 790.429688 Z M 872.199219 154.117188 " clip-rule="nonzero"/></clipPath><clipPath id="158386e76f"><path d="M 0 0 L 1063.351562 0 L 1063.351562 180.980469 L 0 180.980469 Z M 0 0 " clip-rule="nonzero"/></clipPath><clipPath id="0570ba5963"><path d="M -25.976562 -5.480469 L 1063.027344 -5.480469 L 899.582031 180.980469 L -189.425781 180.980469 Z M -25.976562 -5.480469 " clip-rule="nonzero"/></clipPath><clipPath id="a7d51f8fd5"><path d="M 329.960938 742.972656 L 760.183594 742.972656 L 760.183594 810 L 329.960938 810 Z M 329.960938 742.972656 " clip-rule="nonzero"/></clipPath><clipPath id="c1064ebe52"><path d="M 652.542969 742.972656 L 329.960938 742.972656 L 329.960938 950 L 652.542969 950 L 760.070312 846.488281 Z M 652.542969 742.972656 " clip-rule="nonzero"/></clipPath><clipPath id="6cdd9dec41"><path d="M 0 706.488281 L 411.371094 706.488281 L 411.371094 810 L 0 810 Z M 0 706.488281 " clip-rule="nonzero"/></clipPath><clipPath id="6525a03997"><path d="M 303.734375 706.488281 L -18.851562 706.488281 L -18.851562 913.511719 L 303.734375 913.511719 L 411.261719 810 Z M 303.734375 706.488281 " clip-rule="nonzero"/></clipPath></defs><rect x="-144" width="1728" fill="#ffffff" y="-80.999999" height="971.999992" fill-opacity="1"/><rect x="-144" width="1728" fill="#6ba9a1" y="-80.999999" height="971.999992" fill-opacity="1"/><g clip-path="url(#0752108d6a)"><g clip-path="url(#c5f93d0b0b)"><g clip-path="url(#eb0d4ed3db)"><path fill="#3f8e83" d="M 872.199219 154.117188 L 1250.464844 -224.148438 L 1887.3125 412.699219 L 1509.046875 790.964844 Z M 872.199219 154.117188 " fill-opacity="1" fill-rule="nonzero"/></g></g></g><g clip-path="url(#158386e76f)"><g clip-path="url(#0570ba5963)"><path fill="#266e61" d="M -189.425781 -5.480469 L 1063.351562 -5.480469 L 1063.351562 180.980469 L -189.425781 180.980469 Z M -189.425781 -5.480469 " fill-opacity="1" fill-rule="nonzero"/></g></g><g clip-path="url(#a7d51f8fd5)"><g clip-path="url(#c1064ebe52)"><path fill="#3f8e83" d="M 329.960938 742.972656 L 760.183594 742.972656 L 760.183594 950 L 329.960938 950 Z M 329.960938 742.972656 " fill-opacity="1" fill-rule="nonzero"/></g></g><g clip-path="url(#6cdd9dec41)"><g clip-path="url(#6525a03997)"><path fill="#266e61" d="M -18.851562 706.488281 L 411.371094 706.488281 L 411.371094 913.511719 L -18.851562 913.511719 Z M -18.851562 706.488281 " fill-opacity="1" fill-rule="nonzero"/></g></g><path stroke-linecap="butt" transform="matrix(0.75, 0, 0, 0.75, 121.184026, 516.719466)" fill="none" stroke-linejoin="miter" d="M -0.000575968 5.499046 L 1383.926577 5.499046 " stroke="#3f8e83" stroke-width="11" stroke-opacity="1" stroke-miterlimit="4"/><path stroke-linecap="butt" transform="matrix(-0.53033, -0.53033, 0.53033, -0.53033, 1462.763141, 831.58673)" fill="none" stroke-linejoin="miter" d="M 0.00208789 5.501582 L 582.720711 5.497899 " stroke="#3f8e83" stroke-width="11" stroke-opacity="1" stroke-miterlimit="4"/></svg>