<svg xmlns="http://www.w3.org/2000/svg" xmlns:xlink="http://www.w3.org/1999/xlink" width="150" zoomAndPan="magnify" viewBox="0 0 112.5 60" height="80" preserveAspectRatio="xMidYMid meet" version="1.0"><defs><clipPath id="e35d9a88e3"><path d="M 0 0.132812 L 112.003906 0.132812 L 112.003906 59.867188 L 0 59.867188 Z M 0 0.132812 " clip-rule="nonzero"/></clipPath></defs><g clip-path="url(#e35d9a88e3)"><path fill="#ffffff" d="M 0 0.132812 L 112.003906 0.132812 L 112.003906 59.867188 L 0 59.867188 Z M 0 0.132812 " fill-opacity="1" fill-rule="nonzero"/><path fill="#ffffff" d="M 0 0.132812 L 112.003906 0.132812 L 112.003906 59.867188 L 0 59.867188 Z M 0 0.132812 " fill-opacity="1" fill-rule="nonzero"/></g><path fill="#009373" d="M 9.269531 39.964844 C 7.777344 39.964844 6.3125 39.707031 4.878906 39.195312 C 3.445312 38.683594 2.136719 37.894531 0.960938 36.828125 L 3.507812 33.78125 C 4.40625 34.507812 5.324219 35.089844 6.265625 35.519531 C 7.207031 35.945312 8.234375 36.160156 9.351562 36.160156 C 10.246094 36.160156 10.941406 35.996094 11.433594 35.667969 C 11.929688 35.339844 12.175781 34.890625 12.175781 34.3125 L 12.175781 34.253906 C 12.175781 33.976562 12.125 33.730469 12.023438 33.519531 C 11.921875 33.300781 11.726562 33.101562 11.433594 32.917969 C 11.144531 32.730469 10.746094 32.542969 10.230469 32.351562 C 9.71875 32.167969 9.054688 31.96875 8.234375 31.765625 C 7.246094 31.523438 6.347656 31.253906 5.546875 30.957031 C 4.746094 30.660156 4.070312 30.289062 3.507812 29.855469 C 2.949219 29.414062 2.515625 28.867188 2.207031 28.214844 C 1.898438 27.558594 1.746094 26.75 1.746094 25.78125 L 1.746094 25.722656 C 1.746094 24.832031 1.914062 24.023438 2.246094 23.304688 C 2.582031 22.589844 3.054688 21.96875 3.660156 21.449219 C 4.265625 20.921875 4.992188 20.523438 5.828125 20.242188 C 6.667969 19.960938 7.59375 19.820312 8.601562 19.820312 C 10.035156 19.820312 11.355469 20.039062 12.554688 20.46875 C 13.757812 20.894531 14.863281 21.507812 15.871094 22.3125 L 13.632812 25.558594 C 12.757812 24.960938 11.898438 24.488281 11.0625 24.144531 C 10.222656 23.800781 9.382812 23.625 8.542969 23.625 C 7.703125 23.625 7.074219 23.789062 6.652344 24.117188 C 6.238281 24.445312 6.027344 24.851562 6.027344 25.335938 L 6.027344 25.386719 C 6.027344 25.707031 6.085938 25.980469 6.207031 26.214844 C 6.328125 26.445312 6.542969 26.65625 6.863281 26.84375 C 7.179688 27.027344 7.613281 27.207031 8.164062 27.375 C 8.714844 27.542969 9.410156 27.738281 10.25 27.960938 C 11.238281 28.222656 12.117188 28.519531 12.890625 28.84375 C 13.667969 29.171875 14.320312 29.5625 14.851562 30.019531 C 15.382812 30.476562 15.78125 31.011719 16.050781 31.625 C 16.320312 32.242188 16.457031 32.976562 16.457031 33.839844 L 16.457031 33.890625 C 16.457031 34.863281 16.28125 35.726562 15.925781 36.484375 C 15.570312 37.238281 15.078125 37.871094 14.445312 38.386719 C 13.808594 38.898438 13.054688 39.289062 12.175781 39.5625 C 11.304688 39.828125 10.335938 39.964844 9.269531 39.964844 Z M 9.269531 39.964844 " fill-opacity="1" fill-rule="nonzero"/><path fill="#009373" d="M 29.628906 40.015625 C 28.101562 40.015625 26.710938 39.765625 25.453125 39.265625 C 24.191406 38.761719 23.109375 38.0625 22.203125 37.167969 C 21.300781 36.273438 20.597656 35.210938 20.09375 33.980469 C 19.589844 32.746094 19.335938 31.402344 19.335938 29.945312 L 19.335938 29.894531 C 19.335938 28.496094 19.589844 27.1875 20.105469 25.964844 C 20.617188 24.742188 21.332031 23.671875 22.242188 22.75 C 23.160156 21.824219 24.242188 21.097656 25.492188 20.5625 C 26.738281 20.035156 28.109375 19.769531 29.601562 19.769531 C 30.476562 19.769531 31.277344 19.832031 31.996094 19.953125 C 32.710938 20.074219 33.378906 20.242188 33.992188 20.46875 C 34.609375 20.691406 35.1875 20.972656 35.726562 21.308594 C 36.269531 21.640625 36.792969 22.023438 37.292969 22.453125 L 34.582031 25.722656 C 34.207031 25.40625 33.835938 25.125 33.460938 24.882812 C 33.085938 24.640625 32.699219 24.4375 32.300781 24.273438 C 31.902344 24.105469 31.46875 23.972656 31.003906 23.878906 C 30.539062 23.785156 30.023438 23.738281 29.464844 23.738281 C 28.683594 23.738281 27.949219 23.902344 27.265625 24.230469 C 26.585938 24.554688 25.992188 24.996094 25.476562 25.542969 C 24.964844 26.09375 24.5625 26.738281 24.273438 27.476562 C 23.984375 28.210938 23.839844 28.996094 23.839844 29.835938 L 23.839844 29.894531 C 23.839844 30.789062 23.984375 31.613281 24.273438 32.367188 C 24.5625 33.121094 24.972656 33.777344 25.503906 34.339844 C 26.035156 34.898438 26.660156 35.332031 27.378906 35.640625 C 28.097656 35.945312 28.894531 36.101562 29.773438 36.101562 C 31.375 36.101562 32.726562 35.710938 33.828125 34.925781 L 33.828125 32.128906 L 29.488281 32.128906 L 29.488281 28.414062 L 37.992188 28.414062 L 37.992188 36.910156 C 36.984375 37.773438 35.789062 38.503906 34.398438 39.109375 C 33.007812 39.714844 31.417969 40.015625 29.628906 40.015625 Z M 29.628906 40.015625 " fill-opacity="1" fill-rule="nonzero"/><path fill="#009373" d="M 42.132812 20.101562 L 56.902344 20.101562 L 56.902344 23.933594 L 46.414062 23.933594 L 46.414062 27.90625 L 55.644531 27.90625 L 55.644531 31.738281 L 46.414062 31.738281 L 46.414062 35.847656 L 57.042969 35.847656 L 57.042969 39.683594 L 42.132812 39.683594 Z M 42.132812 20.101562 " fill-opacity="1" fill-rule="nonzero"/><path fill="#009373" d="M 69.894531 23.542969 C 69.578125 23.542969 69.269531 23.488281 68.964844 23.382812 C 68.660156 23.273438 68.386719 23.105469 68.140625 22.882812 L 68.675781 22.238281 C 68.867188 22.394531 69.058594 22.515625 69.257812 22.605469 C 69.457031 22.695312 69.675781 22.742188 69.914062 22.742188 C 70.097656 22.742188 70.246094 22.707031 70.347656 22.640625 C 70.453125 22.570312 70.503906 22.472656 70.503906 22.355469 L 70.503906 22.339844 C 70.503906 22.28125 70.492188 22.230469 70.46875 22.183594 C 70.449219 22.140625 70.410156 22.097656 70.347656 22.058594 C 70.289062 22.019531 70.199219 21.980469 70.09375 21.941406 C 69.984375 21.898438 69.84375 21.859375 69.675781 21.816406 C 69.464844 21.765625 69.273438 21.707031 69.105469 21.644531 C 68.9375 21.582031 68.792969 21.503906 68.675781 21.414062 C 68.558594 21.320312 68.46875 21.203125 68.402344 21.066406 C 68.335938 20.929688 68.304688 20.757812 68.304688 20.554688 L 68.304688 20.539062 C 68.304688 20.351562 68.339844 20.183594 68.414062 20.027344 C 68.484375 19.878906 68.582031 19.746094 68.707031 19.636719 C 68.835938 19.527344 68.988281 19.441406 69.164062 19.382812 C 69.34375 19.324219 69.539062 19.296875 69.753906 19.296875 C 70.054688 19.296875 70.328125 19.34375 70.582031 19.433594 C 70.835938 19.523438 71.074219 19.652344 71.285156 19.820312 L 70.816406 20.503906 C 70.628906 20.378906 70.445312 20.28125 70.265625 20.207031 C 70.09375 20.132812 69.914062 20.097656 69.738281 20.097656 C 69.5625 20.097656 69.429688 20.132812 69.339844 20.203125 C 69.253906 20.273438 69.207031 20.355469 69.207031 20.457031 L 69.207031 20.472656 C 69.207031 20.535156 69.222656 20.59375 69.246094 20.644531 C 69.273438 20.695312 69.316406 20.738281 69.382812 20.777344 C 69.453125 20.816406 69.542969 20.851562 69.660156 20.886719 C 69.777344 20.925781 69.921875 20.964844 70.097656 21.007812 C 70.308594 21.066406 70.492188 21.128906 70.65625 21.199219 C 70.820312 21.265625 70.957031 21.347656 71.066406 21.445312 C 71.179688 21.542969 71.265625 21.65625 71.320312 21.785156 C 71.378906 21.914062 71.40625 22.070312 71.40625 22.25 L 71.40625 22.261719 C 71.40625 22.46875 71.371094 22.652344 71.296875 22.808594 C 71.21875 22.96875 71.117188 23.105469 70.984375 23.214844 C 70.851562 23.320312 70.691406 23.402344 70.503906 23.460938 C 70.320312 23.515625 70.117188 23.542969 69.894531 23.542969 Z M 69.894531 23.542969 " fill-opacity="1" fill-rule="nonzero"/><path fill="#009373" d="M 72.242188 19.355469 L 73.148438 19.355469 L 73.148438 23.484375 L 72.242188 23.484375 Z M 72.242188 19.355469 " fill-opacity="1" fill-rule="nonzero"/><path fill="#009373" d="M 75.652344 23.542969 C 75.335938 23.542969 75.027344 23.488281 74.726562 23.382812 C 74.421875 23.273438 74.144531 23.105469 73.898438 22.882812 L 74.433594 22.238281 C 74.625 22.394531 74.816406 22.515625 75.015625 22.605469 C 75.214844 22.695312 75.433594 22.742188 75.671875 22.742188 C 75.859375 22.742188 76.003906 22.707031 76.109375 22.640625 C 76.210938 22.570312 76.261719 22.472656 76.261719 22.355469 L 76.261719 22.339844 C 76.261719 22.28125 76.25 22.230469 76.230469 22.183594 C 76.210938 22.140625 76.167969 22.097656 76.109375 22.058594 C 76.046875 22.019531 75.960938 21.980469 75.851562 21.941406 C 75.742188 21.898438 75.605469 21.859375 75.433594 21.816406 C 75.222656 21.765625 75.03125 21.707031 74.867188 21.644531 C 74.695312 21.582031 74.550781 21.503906 74.433594 21.414062 C 74.316406 21.320312 74.226562 21.203125 74.160156 21.066406 C 74.097656 20.929688 74.066406 20.757812 74.066406 20.554688 L 74.066406 20.539062 C 74.066406 20.351562 74.101562 20.183594 74.171875 20.027344 C 74.242188 19.878906 74.339844 19.746094 74.46875 19.636719 C 74.597656 19.527344 74.75 19.441406 74.925781 19.382812 C 75.101562 19.324219 75.296875 19.296875 75.511719 19.296875 C 75.8125 19.296875 76.089844 19.34375 76.339844 19.433594 C 76.597656 19.523438 76.832031 19.652344 77.042969 19.820312 L 76.574219 20.503906 C 76.386719 20.378906 76.203125 20.28125 76.027344 20.207031 C 75.851562 20.132812 75.671875 20.097656 75.496094 20.097656 C 75.320312 20.097656 75.1875 20.132812 75.097656 20.203125 C 75.011719 20.273438 74.96875 20.355469 74.96875 20.457031 L 74.96875 20.472656 C 74.96875 20.535156 74.980469 20.59375 75.007812 20.644531 C 75.03125 20.695312 75.078125 20.738281 75.140625 20.777344 C 75.210938 20.816406 75.300781 20.851562 75.417969 20.886719 C 75.535156 20.925781 75.679688 20.964844 75.855469 21.007812 C 76.066406 21.066406 76.25 21.128906 76.414062 21.199219 C 76.578125 21.265625 76.714844 21.347656 76.828125 21.445312 C 76.9375 21.542969 77.023438 21.65625 77.078125 21.785156 C 77.136719 21.914062 77.167969 22.070312 77.167969 22.25 L 77.167969 22.261719 C 77.167969 22.46875 77.128906 22.652344 77.054688 22.808594 C 76.980469 22.96875 76.875 23.105469 76.742188 23.214844 C 76.609375 23.320312 76.449219 23.402344 76.261719 23.460938 C 76.078125 23.515625 75.875 23.542969 75.652344 23.542969 Z M 75.652344 23.542969 " fill-opacity="1" fill-rule="nonzero"/><path fill="#009373" d="M 78.917969 20.1875 L 77.660156 20.1875 L 77.660156 19.355469 L 81.089844 19.355469 L 81.089844 20.1875 L 79.832031 20.1875 L 79.832031 23.484375 L 78.917969 23.484375 Z M 78.917969 20.1875 " fill-opacity="1" fill-rule="nonzero"/><path fill="#009373" d="M 81.78125 19.355469 L 84.898438 19.355469 L 84.898438 20.160156 L 82.683594 20.160156 L 82.683594 21 L 84.628906 21 L 84.628906 21.808594 L 82.683594 21.808594 L 82.683594 22.675781 L 84.925781 22.675781 L 84.925781 23.484375 L 81.78125 23.484375 Z M 81.78125 19.355469 " fill-opacity="1" fill-rule="nonzero"/><path fill="#009373" d="M 85.734375 19.355469 L 86.714844 19.355469 L 87.800781 21.101562 L 88.882812 19.355469 L 89.863281 19.355469 L 89.863281 23.484375 L 88.960938 23.484375 L 88.960938 20.785156 L 87.800781 22.554688 L 87.777344 22.554688 L 86.628906 20.804688 L 86.628906 23.484375 L 85.734375 23.484375 Z M 85.734375 19.355469 " fill-opacity="1" fill-rule="nonzero"/><path fill="#009373" d="M 92.273438 19.324219 L 93.113281 19.324219 L 94.878906 23.484375 L 93.933594 23.484375 L 93.554688 22.558594 L 91.808594 22.558594 L 91.429688 23.484375 L 90.5 23.484375 Z M 93.230469 21.757812 L 92.679688 20.417969 L 92.132812 21.757812 Z M 93.230469 21.757812 " fill-opacity="1" fill-rule="nonzero"/><path fill="#009373" d="M 97.289062 19.355469 L 98.898438 19.355469 C 99.222656 19.355469 99.519531 19.40625 99.789062 19.507812 C 100.054688 19.613281 100.289062 19.757812 100.480469 19.945312 C 100.679688 20.132812 100.828125 20.347656 100.933594 20.597656 C 101.039062 20.847656 101.09375 21.117188 101.09375 21.40625 L 101.09375 21.417969 C 101.09375 21.707031 101.039062 21.980469 100.933594 22.234375 C 100.828125 22.484375 100.679688 22.703125 100.480469 22.886719 C 100.289062 23.070312 100.054688 23.21875 99.789062 23.324219 C 99.519531 23.429688 99.222656 23.484375 98.898438 23.484375 L 97.289062 23.484375 Z M 98.195312 20.175781 L 98.195312 22.664062 L 98.898438 22.664062 C 99.082031 22.664062 99.25 22.636719 99.402344 22.578125 C 99.558594 22.515625 99.691406 22.429688 99.796875 22.320312 C 99.90625 22.210938 99.992188 22.082031 100.054688 21.929688 C 100.113281 21.785156 100.148438 21.617188 100.148438 21.433594 L 100.148438 21.417969 C 100.148438 21.238281 100.113281 21.070312 100.054688 20.917969 C 99.992188 20.765625 99.90625 20.632812 99.796875 20.523438 C 99.691406 20.414062 99.558594 20.328125 99.402344 20.265625 C 99.25 20.207031 99.082031 20.175781 98.898438 20.175781 Z M 98.195312 20.175781 " fill-opacity="1" fill-rule="nonzero"/><path fill="#009373" d="M 101.902344 19.355469 L 105.019531 19.355469 L 105.019531 20.160156 L 102.804688 20.160156 L 102.804688 21 L 104.75 21 L 104.75 21.808594 L 102.804688 21.808594 L 102.804688 22.675781 L 105.046875 22.675781 L 105.046875 23.484375 L 101.902344 23.484375 Z M 101.902344 19.355469 " fill-opacity="1" fill-rule="nonzero"/><path fill="#009373" d="M 70.414062 31.710938 C 70.089844 31.710938 69.792969 31.65625 69.527344 31.550781 C 69.261719 31.445312 69.035156 31.296875 68.84375 31.109375 C 68.652344 30.917969 68.503906 30.695312 68.398438 30.433594 C 68.292969 30.175781 68.238281 29.894531 68.238281 29.585938 L 68.238281 29.570312 C 68.238281 29.277344 68.292969 29 68.398438 28.746094 C 68.507812 28.488281 68.65625 28.261719 68.847656 28.066406 C 69.042969 27.871094 69.273438 27.71875 69.535156 27.605469 C 69.796875 27.492188 70.089844 27.433594 70.40625 27.433594 C 70.59375 27.433594 70.757812 27.449219 70.914062 27.472656 C 71.0625 27.5 71.203125 27.539062 71.335938 27.585938 C 71.464844 27.632812 71.585938 27.691406 71.699219 27.761719 C 71.8125 27.832031 71.921875 27.914062 72.027344 28.003906 L 71.457031 28.691406 C 71.378906 28.628906 71.296875 28.570312 71.21875 28.519531 C 71.140625 28.464844 71.058594 28.421875 70.976562 28.386719 C 70.890625 28.351562 70.796875 28.324219 70.699219 28.304688 C 70.601562 28.285156 70.496094 28.273438 70.378906 28.273438 C 70.214844 28.273438 70.058594 28.308594 69.914062 28.378906 C 69.769531 28.445312 69.644531 28.539062 69.535156 28.652344 C 69.425781 28.769531 69.34375 28.90625 69.28125 29.0625 C 69.21875 29.214844 69.1875 29.382812 69.1875 29.5625 L 69.1875 29.570312 C 69.1875 29.761719 69.21875 29.9375 69.28125 30.09375 C 69.34375 30.253906 69.429688 30.394531 69.539062 30.511719 C 69.652344 30.628906 69.785156 30.71875 69.9375 30.785156 C 70.089844 30.851562 70.257812 30.882812 70.441406 30.882812 C 70.78125 30.882812 71.066406 30.796875 71.296875 30.632812 L 71.296875 30.046875 L 70.382812 30.046875 L 70.382812 29.261719 L 72.179688 29.261719 L 72.179688 31.054688 C 71.964844 31.238281 71.710938 31.394531 71.417969 31.523438 C 71.125 31.648438 70.789062 31.710938 70.414062 31.710938 Z M 70.414062 31.710938 " fill-opacity="1" fill-rule="nonzero"/><path fill="#009373" d="M 73.046875 27.507812 L 76.164062 27.507812 L 76.164062 28.3125 L 73.949219 28.3125 L 73.949219 29.152344 L 75.898438 29.152344 L 75.898438 29.964844 L 73.949219 29.964844 L 73.949219 30.828125 L 76.191406 30.828125 L 76.191406 31.636719 L 73.046875 31.636719 Z M 73.046875 27.507812 " fill-opacity="1" fill-rule="nonzero"/><path fill="#009373" d="M 78.472656 31.695312 C 78.15625 31.695312 77.847656 31.644531 77.546875 31.535156 C 77.242188 31.425781 76.964844 31.261719 76.71875 31.035156 L 77.253906 30.390625 C 77.445312 30.546875 77.640625 30.671875 77.835938 30.761719 C 78.035156 30.851562 78.253906 30.894531 78.492188 30.894531 C 78.679688 30.894531 78.824219 30.863281 78.929688 30.792969 C 79.03125 30.722656 79.082031 30.628906 79.082031 30.507812 L 79.082031 30.492188 C 79.082031 30.433594 79.070312 30.382812 79.050781 30.335938 C 79.03125 30.292969 78.988281 30.25 78.929688 30.210938 C 78.867188 30.171875 78.78125 30.132812 78.671875 30.09375 C 78.566406 30.054688 78.425781 30.011719 78.253906 29.96875 C 78.042969 29.917969 77.851562 29.859375 77.6875 29.800781 C 77.515625 29.734375 77.371094 29.65625 77.253906 29.566406 C 77.136719 29.472656 77.046875 29.355469 76.980469 29.222656 C 76.917969 29.082031 76.886719 28.910156 76.886719 28.707031 L 76.886719 28.691406 C 76.886719 28.503906 76.921875 28.335938 76.992188 28.183594 C 77.0625 28.03125 77.160156 27.898438 77.289062 27.789062 C 77.417969 27.679688 77.570312 27.59375 77.746094 27.539062 C 77.921875 27.480469 78.117188 27.449219 78.332031 27.449219 C 78.632812 27.449219 78.910156 27.496094 79.160156 27.585938 C 79.417969 27.675781 79.652344 27.808594 79.863281 27.972656 L 79.394531 28.660156 C 79.207031 28.53125 79.023438 28.433594 78.847656 28.363281 C 78.671875 28.289062 78.492188 28.25 78.316406 28.25 C 78.140625 28.25 78.007812 28.289062 77.917969 28.359375 C 77.832031 28.425781 77.789062 28.511719 77.789062 28.609375 L 77.789062 28.625 C 77.789062 28.691406 77.800781 28.75 77.828125 28.800781 C 77.851562 28.847656 77.898438 28.890625 77.960938 28.929688 C 78.03125 28.96875 78.121094 29.007812 78.238281 29.042969 C 78.355469 29.078125 78.5 29.117188 78.675781 29.164062 C 78.886719 29.222656 79.070312 29.285156 79.234375 29.351562 C 79.398438 29.421875 79.535156 29.503906 79.648438 29.601562 C 79.757812 29.695312 79.84375 29.8125 79.898438 29.941406 C 79.957031 30.070312 79.988281 30.226562 79.988281 30.40625 L 79.988281 30.414062 C 79.988281 30.621094 79.949219 30.804688 79.875 30.964844 C 79.800781 31.121094 79.695312 31.257812 79.5625 31.367188 C 79.429688 31.472656 79.269531 31.554688 79.082031 31.613281 C 78.898438 31.667969 78.695312 31.695312 78.472656 31.695312 Z M 78.472656 31.695312 " fill-opacity="1" fill-rule="nonzero"/><path fill="#009373" d="M 81.738281 28.34375 L 80.480469 28.34375 L 80.480469 27.507812 L 83.910156 27.507812 L 83.910156 28.34375 L 82.652344 28.34375 L 82.652344 31.636719 L 81.738281 31.636719 Z M 81.738281 28.34375 " fill-opacity="1" fill-rule="nonzero"/><path fill="#009373" d="M 84.644531 27.507812 L 85.550781 27.507812 L 85.550781 31.636719 L 84.644531 31.636719 Z M 84.644531 27.507812 " fill-opacity="1" fill-rule="nonzero"/><path fill="#009373" d="M 88.59375 31.710938 C 88.273438 31.710938 87.976562 31.652344 87.710938 31.542969 C 87.445312 31.429688 87.210938 31.277344 87.015625 31.085938 C 86.820312 30.894531 86.667969 30.671875 86.558594 30.414062 C 86.453125 30.15625 86.398438 29.878906 86.398438 29.585938 L 86.398438 29.570312 C 86.398438 29.277344 86.453125 29 86.566406 28.746094 C 86.675781 28.488281 86.832031 28.261719 87.027344 28.066406 C 87.21875 27.871094 87.449219 27.71875 87.71875 27.605469 C 87.992188 27.492188 88.285156 27.433594 88.601562 27.433594 C 88.921875 27.433594 89.214844 27.492188 89.480469 27.605469 C 89.75 27.71875 89.980469 27.871094 90.175781 28.0625 C 90.371094 28.25 90.519531 28.472656 90.628906 28.730469 C 90.738281 28.992188 90.792969 29.265625 90.792969 29.5625 L 90.792969 29.570312 C 90.792969 29.871094 90.738281 30.148438 90.628906 30.40625 C 90.515625 30.660156 90.363281 30.886719 90.171875 31.082031 C 89.976562 31.273438 89.742188 31.429688 89.472656 31.542969 C 89.203125 31.652344 88.910156 31.710938 88.59375 31.710938 Z M 88.601562 30.871094 C 88.785156 30.871094 88.949219 30.839844 89.101562 30.773438 C 89.257812 30.707031 89.390625 30.613281 89.496094 30.496094 C 89.605469 30.378906 89.691406 30.242188 89.75 30.085938 C 89.808594 29.929688 89.839844 29.765625 89.839844 29.585938 L 89.839844 29.570312 C 89.839844 29.394531 89.808594 29.230469 89.75 29.070312 C 89.691406 28.914062 89.605469 28.773438 89.492188 28.660156 C 89.378906 28.539062 89.246094 28.445312 89.09375 28.378906 C 88.941406 28.308594 88.773438 28.273438 88.59375 28.273438 C 88.40625 28.273438 88.234375 28.308594 88.085938 28.378906 C 87.933594 28.441406 87.804688 28.535156 87.695312 28.652344 C 87.589844 28.769531 87.503906 28.90625 87.441406 29.0625 C 87.382812 29.214844 87.351562 29.382812 87.351562 29.5625 L 87.351562 29.570312 C 87.351562 29.75 87.382812 29.917969 87.441406 30.074219 C 87.503906 30.230469 87.589844 30.371094 87.699219 30.488281 C 87.8125 30.605469 87.945312 30.699219 88.097656 30.769531 C 88.25 30.835938 88.417969 30.871094 88.601562 30.871094 Z M 88.949219 26.199219 L 89.71875 26.53125 L 88.917969 27.125 L 88.234375 27.125 Z M 88.949219 26.199219 " fill-opacity="1" fill-rule="nonzero"/><path fill="#009373" d="M 91.597656 27.507812 L 92.4375 27.507812 L 94.375 30.050781 L 94.375 27.507812 L 95.269531 27.507812 L 95.269531 31.636719 L 94.496094 31.636719 L 92.496094 29.011719 L 92.496094 31.636719 L 91.597656 31.636719 Z M 91.597656 27.507812 " fill-opacity="1" fill-rule="nonzero"/><path fill="#009373" d="M 98.03125 27.507812 L 99.644531 27.507812 C 99.964844 27.507812 100.261719 27.558594 100.53125 27.664062 C 100.800781 27.769531 101.03125 27.914062 101.226562 28.101562 C 101.421875 28.285156 101.570312 28.5 101.675781 28.75 C 101.78125 29 101.835938 29.269531 101.835938 29.5625 L 101.835938 29.570312 C 101.835938 29.863281 101.78125 30.132812 101.675781 30.386719 C 101.570312 30.636719 101.421875 30.855469 101.226562 31.042969 C 101.03125 31.226562 100.800781 31.371094 100.53125 31.476562 C 100.261719 31.585938 99.964844 31.636719 99.644531 31.636719 L 98.03125 31.636719 Z M 98.9375 28.328125 L 98.9375 30.816406 L 99.644531 30.816406 C 99.828125 30.816406 99.996094 30.789062 100.148438 30.730469 C 100.300781 30.671875 100.433594 30.585938 100.539062 30.472656 C 100.648438 30.363281 100.734375 30.234375 100.796875 30.085938 C 100.859375 29.9375 100.890625 29.769531 100.890625 29.585938 L 100.890625 29.570312 C 100.890625 29.390625 100.859375 29.222656 100.796875 29.070312 C 100.734375 28.917969 100.648438 28.789062 100.539062 28.679688 C 100.433594 28.570312 100.300781 28.484375 100.148438 28.421875 C 99.996094 28.359375 99.828125 28.328125 99.644531 28.328125 Z M 98.9375 28.328125 " fill-opacity="1" fill-rule="nonzero"/><path fill="#009373" d="M 102.644531 27.507812 L 105.761719 27.507812 L 105.761719 28.3125 L 103.546875 28.3125 L 103.546875 29.152344 L 105.496094 29.152344 L 105.496094 29.964844 L 103.546875 29.964844 L 103.546875 30.828125 L 105.789062 30.828125 L 105.789062 31.636719 L 102.644531 31.636719 Z M 102.644531 27.507812 " fill-opacity="1" fill-rule="nonzero"/><path fill="#009373" d="M 68.421875 35.476562 L 71.539062 35.476562 L 71.539062 36.28125 L 69.324219 36.28125 L 69.324219 37.121094 L 71.269531 37.121094 L 71.269531 37.929688 L 69.324219 37.929688 L 69.324219 38.792969 L 71.566406 38.792969 L 71.566406 39.605469 L 68.421875 39.605469 Z M 68.421875 35.476562 " fill-opacity="1" fill-rule="nonzero"/><path fill="#009373" d="M 74.84375 39.664062 C 74.53125 39.664062 74.21875 39.609375 73.917969 39.503906 C 73.613281 39.394531 73.335938 39.226562 73.089844 39.003906 L 73.625 38.359375 C 73.816406 38.511719 74.011719 38.636719 74.207031 38.726562 C 74.40625 38.816406 74.625 38.863281 74.863281 38.863281 C 75.050781 38.863281 75.195312 38.828125 75.300781 38.761719 C 75.402344 38.691406 75.457031 38.59375 75.457031 38.472656 L 75.457031 38.460938 C 75.457031 38.402344 75.441406 38.351562 75.421875 38.304688 C 75.402344 38.257812 75.359375 38.21875 75.300781 38.179688 C 75.238281 38.140625 75.152344 38.101562 75.042969 38.0625 C 74.9375 38.019531 74.796875 37.976562 74.625 37.933594 C 74.414062 37.882812 74.226562 37.828125 74.058594 37.765625 C 73.890625 37.703125 73.746094 37.625 73.625 37.53125 C 73.507812 37.4375 73.417969 37.324219 73.355469 37.1875 C 73.289062 37.050781 73.257812 36.878906 73.257812 36.671875 L 73.257812 36.660156 C 73.257812 36.472656 73.292969 36.300781 73.363281 36.148438 C 73.433594 35.996094 73.53125 35.867188 73.660156 35.757812 C 73.789062 35.648438 73.941406 35.5625 74.117188 35.503906 C 74.292969 35.445312 74.488281 35.417969 74.703125 35.417969 C 75.003906 35.417969 75.28125 35.460938 75.53125 35.550781 C 75.789062 35.644531 76.023438 35.773438 76.238281 35.941406 L 75.765625 36.625 C 75.578125 36.5 75.394531 36.402344 75.21875 36.328125 C 75.042969 36.253906 74.867188 36.21875 74.6875 36.21875 C 74.511719 36.21875 74.378906 36.253906 74.289062 36.324219 C 74.203125 36.390625 74.160156 36.476562 74.160156 36.578125 L 74.160156 36.589844 C 74.160156 36.65625 74.171875 36.714844 74.199219 36.765625 C 74.222656 36.8125 74.269531 36.859375 74.335938 36.898438 C 74.402344 36.9375 74.496094 36.972656 74.609375 37.007812 C 74.726562 37.042969 74.871094 37.085938 75.046875 37.128906 C 75.257812 37.1875 75.441406 37.25 75.605469 37.320312 C 75.769531 37.386719 75.90625 37.46875 76.019531 37.566406 C 76.132812 37.664062 76.214844 37.777344 76.269531 37.90625 C 76.328125 38.035156 76.359375 38.191406 76.359375 38.371094 L 76.359375 38.382812 C 76.359375 38.589844 76.320312 38.773438 76.246094 38.929688 C 76.171875 39.089844 76.066406 39.222656 75.9375 39.332031 C 75.800781 39.441406 75.640625 39.523438 75.457031 39.582031 C 75.269531 39.636719 75.066406 39.664062 74.84375 39.664062 Z M 74.84375 39.664062 " fill-opacity="1" fill-rule="nonzero"/><path fill="#009373" d="M 79.109375 36.308594 L 77.851562 36.308594 L 77.851562 35.476562 L 81.277344 35.476562 L 81.277344 36.308594 L 80.019531 36.308594 L 80.019531 39.605469 L 79.109375 39.605469 Z M 79.109375 36.308594 " fill-opacity="1" fill-rule="nonzero"/><path fill="#009373" d="M 84.382812 35.445312 L 85.222656 35.445312 L 86.992188 39.605469 L 86.042969 39.605469 L 85.664062 38.679688 L 83.917969 38.679688 L 83.539062 39.605469 L 82.613281 39.605469 Z M 85.339844 37.878906 L 84.792969 36.539062 L 84.242188 37.878906 Z M 85.339844 37.878906 " fill-opacity="1" fill-rule="nonzero"/><path fill="#009373" d="M 88.625 35.476562 L 90.238281 35.476562 C 90.5625 35.476562 90.855469 35.527344 91.125 35.628906 C 91.394531 35.734375 91.625 35.878906 91.820312 36.066406 C 92.015625 36.25 92.167969 36.46875 92.273438 36.71875 C 92.378906 36.96875 92.433594 37.238281 92.433594 37.527344 L 92.433594 37.539062 C 92.433594 37.828125 92.378906 38.101562 92.273438 38.351562 C 92.167969 38.605469 92.015625 38.824219 91.820312 39.007812 C 91.625 39.191406 91.394531 39.339844 91.125 39.445312 C 90.855469 39.550781 90.5625 39.605469 90.238281 39.605469 L 88.625 39.605469 Z M 89.535156 36.292969 L 89.535156 38.785156 L 90.238281 38.785156 C 90.421875 38.785156 90.589844 38.753906 90.742188 38.699219 C 90.898438 38.636719 91.027344 38.550781 91.136719 38.441406 C 91.246094 38.332031 91.332031 38.199219 91.394531 38.050781 C 91.453125 37.902344 91.484375 37.738281 91.484375 37.550781 L 91.484375 37.539062 C 91.484375 37.355469 91.453125 37.191406 91.394531 37.039062 C 91.332031 36.886719 91.246094 36.753906 91.136719 36.644531 C 91.027344 36.535156 90.898438 36.449219 90.742188 36.386719 C 90.589844 36.328125 90.421875 36.292969 90.238281 36.292969 Z M 89.535156 36.292969 " fill-opacity="1" fill-rule="nonzero"/><path fill="#009373" d="M 94.28125 35.476562 L 95.191406 35.476562 L 95.191406 39.605469 L 94.28125 39.605469 Z M 94.28125 35.476562 " fill-opacity="1" fill-rule="nonzero"/><path fill="#009373" d="M 98.636719 35.445312 L 99.476562 35.445312 L 101.242188 39.605469 L 100.296875 39.605469 L 99.917969 38.679688 L 98.167969 38.679688 L 97.792969 39.605469 L 96.863281 39.605469 Z M 99.589844 37.878906 L 99.042969 36.539062 L 98.496094 37.878906 Z M 99.589844 37.878906 " fill-opacity="1" fill-rule="nonzero"/><path fill="#009373" d="M 104.347656 39.664062 C 104.035156 39.664062 103.722656 39.609375 103.421875 39.503906 C 103.117188 39.394531 102.839844 39.226562 102.59375 39.003906 L 103.128906 38.359375 C 103.320312 38.511719 103.515625 38.636719 103.710938 38.726562 C 103.910156 38.816406 104.128906 38.863281 104.367188 38.863281 C 104.554688 38.863281 104.699219 38.828125 104.804688 38.761719 C 104.90625 38.691406 104.960938 38.59375 104.960938 38.472656 L 104.960938 38.460938 C 104.960938 38.402344 104.945312 38.351562 104.925781 38.304688 C 104.90625 38.257812 104.863281 38.21875 104.804688 38.179688 C 104.742188 38.140625 104.65625 38.101562 104.546875 38.0625 C 104.441406 38.019531 104.300781 37.976562 104.128906 37.933594 C 103.917969 37.882812 103.730469 37.828125 103.5625 37.765625 C 103.394531 37.703125 103.25 37.625 103.128906 37.53125 C 103.011719 37.4375 102.921875 37.324219 102.859375 37.1875 C 102.792969 37.050781 102.761719 36.878906 102.761719 36.671875 L 102.761719 36.660156 C 102.761719 36.472656 102.796875 36.300781 102.867188 36.148438 C 102.9375 35.996094 103.035156 35.867188 103.164062 35.757812 C 103.292969 35.648438 103.445312 35.5625 103.621094 35.503906 C 103.796875 35.445312 103.992188 35.417969 104.207031 35.417969 C 104.507812 35.417969 104.785156 35.460938 105.035156 35.550781 C 105.292969 35.644531 105.527344 35.773438 105.742188 35.941406 L 105.269531 36.625 C 105.082031 36.5 104.898438 36.402344 104.722656 36.328125 C 104.546875 36.253906 104.371094 36.21875 104.191406 36.21875 C 104.015625 36.21875 103.882812 36.253906 103.792969 36.324219 C 103.707031 36.390625 103.664062 36.476562 103.664062 36.578125 L 103.664062 36.589844 C 103.664062 36.65625 103.675781 36.714844 103.703125 36.765625 C 103.726562 36.8125 103.773438 36.859375 103.835938 36.898438 C 103.90625 36.9375 103.996094 36.972656 104.113281 37.007812 C 104.230469 37.042969 104.375 37.085938 104.550781 37.128906 C 104.761719 37.1875 104.945312 37.25 105.109375 37.320312 C 105.273438 37.386719 105.410156 37.46875 105.523438 37.566406 C 105.636719 37.664062 105.71875 37.777344 105.773438 37.90625 C 105.832031 38.035156 105.863281 38.191406 105.863281 38.371094 L 105.863281 38.382812 C 105.863281 38.589844 105.824219 38.773438 105.75 38.929688 C 105.675781 39.089844 105.570312 39.222656 105.441406 39.332031 C 105.304688 39.441406 105.144531 39.523438 104.960938 39.582031 C 104.773438 39.636719 104.570312 39.664062 104.347656 39.664062 Z M 104.347656 39.664062 " fill-opacity="1" fill-rule="nonzero"/><path stroke-linecap="butt" transform="matrix(0, -0.232965, 0.232965, 0, 62.386178, 41.343775)" fill="none" stroke-linejoin="miter" d="M 0.000109438 3.003715 L 99.129966 3.003715 " stroke="#009373" stroke-width="6" stroke-opacity="1" stroke-miterlimit="4"/></svg>