<svg xmlns="http://www.w3.org/2000/svg" xmlns:xlink="http://www.w3.org/1999/xlink" width="500" zoomAndPan="magnify" viewBox="0 0 375 374.999991" height="500" preserveAspectRatio="xMidYMid meet" version="1.0"><defs><g/></defs><g fill="#009373" fill-opacity="1"><g transform="translate(7.320707, 219.020663)"><g><path d="M 29.984375 0.90625 C 25.179688 0.90625 20.46875 0.0820312 15.84375 -1.5625 C 11.226562 -3.21875 7.023438 -5.757812 3.234375 -9.1875 L 11.4375 -19 C 14.320312 -16.65625 17.28125 -14.789062 20.3125 -13.40625 C 23.34375 -12.03125 26.65625 -11.34375 30.25 -11.34375 C 33.132812 -11.34375 35.367188 -11.867188 36.953125 -12.921875 C 38.546875 -13.972656 39.34375 -15.425781 39.34375 -17.28125 L 39.34375 -17.46875 C 39.34375 -18.363281 39.175781 -19.15625 38.84375 -19.84375 C 38.519531 -20.539062 37.890625 -21.1875 36.953125 -21.78125 C 36.023438 -22.382812 34.734375 -22.988281 33.078125 -23.59375 C 31.429688 -24.195312 29.289062 -24.828125 26.65625 -25.484375 C 23.46875 -26.265625 20.582031 -27.132812 18 -28.09375 C 15.425781 -29.050781 13.238281 -30.234375 11.4375 -31.640625 C 9.632812 -33.054688 8.238281 -34.816406 7.25 -36.921875 C 6.257812 -39.023438 5.765625 -41.632812 5.765625 -44.75 L 5.765625 -44.9375 C 5.765625 -47.8125 6.300781 -50.40625 7.375 -52.71875 C 8.457031 -55.03125 9.972656 -57.023438 11.921875 -58.703125 C 13.878906 -60.390625 16.207031 -61.679688 18.90625 -62.578125 C 21.613281 -63.484375 24.585938 -63.9375 27.828125 -63.9375 C 32.453125 -63.9375 36.695312 -63.242188 40.5625 -61.859375 C 44.4375 -60.484375 47.992188 -58.503906 51.234375 -55.921875 L 44.03125 -45.46875 C 41.207031 -47.394531 38.445312 -48.910156 35.75 -50.015625 C 33.050781 -51.128906 30.347656 -51.6875 27.640625 -51.6875 C 24.941406 -51.6875 22.914062 -51.160156 21.5625 -50.109375 C 20.21875 -49.054688 19.546875 -47.75 19.546875 -46.1875 L 19.546875 -46.015625 C 19.546875 -44.992188 19.738281 -44.109375 20.125 -43.359375 C 20.507812 -42.609375 21.210938 -41.929688 22.234375 -41.328125 C 23.253906 -40.734375 24.648438 -40.164062 26.421875 -39.625 C 28.191406 -39.082031 30.429688 -38.453125 33.140625 -37.734375 C 36.316406 -36.890625 39.148438 -35.941406 41.640625 -34.890625 C 44.140625 -33.835938 46.242188 -32.578125 47.953125 -31.109375 C 49.660156 -29.640625 50.945312 -27.914062 51.8125 -25.9375 C 52.6875 -23.957031 53.125 -21.582031 53.125 -18.8125 L 53.125 -18.640625 C 53.125 -15.515625 52.550781 -12.734375 51.40625 -10.296875 C 50.269531 -7.867188 48.679688 -5.828125 46.640625 -4.171875 C 44.597656 -2.523438 42.164062 -1.265625 39.34375 -0.390625 C 36.53125 0.472656 33.410156 0.90625 29.984375 0.90625 Z M 29.984375 0.90625 "/></g></g></g><g fill="#009373" fill-opacity="1"><g transform="translate(64.947462, 219.020663)"><g><path d="M 37.90625 1.078125 C 32.988281 1.078125 28.503906 0.269531 24.453125 -1.34375 C 20.398438 -2.96875 16.914062 -5.21875 14 -8.09375 C 11.09375 -10.976562 8.828125 -14.398438 7.203125 -18.359375 C 5.578125 -22.328125 4.765625 -26.65625 4.765625 -31.34375 L 4.765625 -31.515625 C 4.765625 -36.015625 5.585938 -40.226562 7.234375 -44.15625 C 8.890625 -48.09375 11.1875 -51.546875 14.125 -54.515625 C 17.070312 -57.492188 20.554688 -59.835938 24.578125 -61.546875 C 28.597656 -63.253906 33.007812 -64.109375 37.8125 -64.109375 C 40.632812 -64.109375 43.203125 -63.910156 45.515625 -63.515625 C 47.828125 -63.128906 49.972656 -62.578125 51.953125 -61.859375 C 53.929688 -61.140625 55.789062 -60.238281 57.53125 -59.15625 C 59.28125 -58.082031 60.960938 -56.851562 62.578125 -55.46875 L 53.84375 -44.9375 C 52.644531 -45.957031 51.441406 -46.859375 50.234375 -47.640625 C 49.035156 -48.421875 47.789062 -49.078125 46.5 -49.609375 C 45.21875 -50.148438 43.828125 -50.570312 42.328125 -50.875 C 40.828125 -51.175781 39.175781 -51.328125 37.375 -51.328125 C 34.851562 -51.328125 32.492188 -50.800781 30.296875 -49.75 C 28.109375 -48.695312 26.1875 -47.285156 24.53125 -45.515625 C 22.882812 -43.742188 21.59375 -41.671875 20.65625 -39.296875 C 19.726562 -36.929688 19.265625 -34.398438 19.265625 -31.703125 L 19.265625 -31.515625 C 19.265625 -28.628906 19.726562 -25.972656 20.65625 -23.546875 C 21.59375 -21.117188 22.914062 -19.003906 24.625 -17.203125 C 26.332031 -15.398438 28.34375 -14.003906 30.65625 -13.015625 C 32.96875 -12.023438 35.535156 -11.53125 38.359375 -11.53125 C 43.523438 -11.53125 47.878906 -12.789062 51.421875 -15.3125 L 51.421875 -24.3125 L 37.453125 -24.3125 L 37.453125 -36.28125 L 64.828125 -36.28125 L 64.828125 -8.921875 C 61.585938 -6.148438 57.726562 -3.789062 53.25 -1.84375 C 48.78125 0.101562 43.664062 1.078125 37.90625 1.078125 Z M 37.90625 1.078125 "/></g></g></g><g fill="#009373" fill-opacity="1"><g transform="translate(135.540242, 219.020663)"><g><path d="M 7.5625 -63.03125 L 55.109375 -63.03125 L 55.109375 -50.703125 L 21.34375 -50.703125 L 21.34375 -37.90625 L 51.0625 -37.90625 L 51.0625 -25.578125 L 21.34375 -25.578125 L 21.34375 -12.34375 L 55.5625 -12.34375 L 55.5625 0 L 7.5625 0 Z M 7.5625 -63.03125 "/></g></g></g><g fill="#009373" fill-opacity="1"><g transform="translate(226.143534, 166.874989)"><g><path d="M 6.328125 0.1875 C 5.316406 0.1875 4.320312 0.015625 3.34375 -0.328125 C 2.363281 -0.679688 1.476562 -1.21875 0.6875 -1.9375 L 2.40625 -4.015625 C 3.019531 -3.515625 3.644531 -3.117188 4.28125 -2.828125 C 4.925781 -2.535156 5.628906 -2.390625 6.390625 -2.390625 C 6.992188 -2.390625 7.460938 -2.5 7.796875 -2.71875 C 8.128906 -2.945312 8.296875 -3.253906 8.296875 -3.640625 L 8.296875 -3.6875 C 8.296875 -3.875 8.257812 -4.039062 8.1875 -4.1875 C 8.125 -4.332031 7.992188 -4.46875 7.796875 -4.59375 C 7.597656 -4.71875 7.320312 -4.84375 6.96875 -4.96875 C 6.625 -5.101562 6.175781 -5.238281 5.625 -5.375 C 4.945312 -5.539062 4.335938 -5.722656 3.796875 -5.921875 C 3.253906 -6.128906 2.789062 -6.378906 2.40625 -6.671875 C 2.03125 -6.972656 1.738281 -7.34375 1.53125 -7.78125 C 1.320312 -8.226562 1.21875 -8.78125 1.21875 -9.4375 L 1.21875 -9.484375 C 1.21875 -10.085938 1.332031 -10.632812 1.5625 -11.125 C 1.789062 -11.613281 2.109375 -12.035156 2.515625 -12.390625 C 2.929688 -12.742188 3.421875 -13.015625 3.984375 -13.203125 C 4.554688 -13.390625 5.1875 -13.484375 5.875 -13.484375 C 6.84375 -13.484375 7.734375 -13.335938 8.546875 -13.046875 C 9.367188 -12.753906 10.125 -12.335938 10.8125 -11.796875 L 9.296875 -9.59375 C 8.691406 -10 8.101562 -10.316406 7.53125 -10.546875 C 6.96875 -10.785156 6.398438 -10.90625 5.828125 -10.90625 C 5.265625 -10.90625 4.835938 -10.789062 4.546875 -10.5625 C 4.265625 -10.34375 4.125 -10.070312 4.125 -9.75 L 4.125 -9.703125 C 4.125 -9.492188 4.164062 -9.304688 4.25 -9.140625 C 4.332031 -8.984375 4.476562 -8.84375 4.6875 -8.71875 C 4.90625 -8.59375 5.203125 -8.472656 5.578125 -8.359375 C 5.953125 -8.242188 6.421875 -8.113281 6.984375 -7.96875 C 7.660156 -7.78125 8.257812 -7.578125 8.78125 -7.359375 C 9.3125 -7.140625 9.753906 -6.875 10.109375 -6.5625 C 10.472656 -6.25 10.742188 -5.882812 10.921875 -5.46875 C 11.109375 -5.050781 11.203125 -4.550781 11.203125 -3.96875 L 11.203125 -3.9375 C 11.203125 -3.269531 11.082031 -2.679688 10.84375 -2.171875 C 10.601562 -1.660156 10.269531 -1.226562 9.84375 -0.875 C 9.414062 -0.53125 8.898438 -0.265625 8.296875 -0.078125 C 7.703125 0.0976562 7.046875 0.1875 6.328125 0.1875 Z M 6.328125 0.1875 "/></g></g></g><g fill="#009373" fill-opacity="1"><g transform="translate(238.30105, 166.874989)"><g><path d="M 1.734375 -13.296875 L 4.65625 -13.296875 L 4.65625 0 L 1.734375 0 Z M 1.734375 -13.296875 "/></g></g></g><g fill="#009373" fill-opacity="1"><g transform="translate(244.683752, 166.874989)"><g><path d="M 6.328125 0.1875 C 5.316406 0.1875 4.320312 0.015625 3.34375 -0.328125 C 2.363281 -0.679688 1.476562 -1.21875 0.6875 -1.9375 L 2.40625 -4.015625 C 3.019531 -3.515625 3.644531 -3.117188 4.28125 -2.828125 C 4.925781 -2.535156 5.628906 -2.390625 6.390625 -2.390625 C 6.992188 -2.390625 7.460938 -2.5 7.796875 -2.71875 C 8.128906 -2.945312 8.296875 -3.253906 8.296875 -3.640625 L 8.296875 -3.6875 C 8.296875 -3.875 8.257812 -4.039062 8.1875 -4.1875 C 8.125 -4.332031 7.992188 -4.46875 7.796875 -4.59375 C 7.597656 -4.71875 7.320312 -4.84375 6.96875 -4.96875 C 6.625 -5.101562 6.175781 -5.238281 5.625 -5.375 C 4.945312 -5.539062 4.335938 -5.722656 3.796875 -5.921875 C 3.253906 -6.128906 2.789062 -6.378906 2.40625 -6.671875 C 2.03125 -6.972656 1.738281 -7.34375 1.53125 -7.78125 C 1.320312 -8.226562 1.21875 -8.78125 1.21875 -9.4375 L 1.21875 -9.484375 C 1.21875 -10.085938 1.332031 -10.632812 1.5625 -11.125 C 1.789062 -11.613281 2.109375 -12.035156 2.515625 -12.390625 C 2.929688 -12.742188 3.421875 -13.015625 3.984375 -13.203125 C 4.554688 -13.390625 5.1875 -13.484375 5.875 -13.484375 C 6.84375 -13.484375 7.734375 -13.335938 8.546875 -13.046875 C 9.367188 -12.753906 10.125 -12.335938 10.8125 -11.796875 L 9.296875 -9.59375 C 8.691406 -10 8.101562 -10.316406 7.53125 -10.546875 C 6.96875 -10.785156 6.398438 -10.90625 5.828125 -10.90625 C 5.265625 -10.90625 4.835938 -10.789062 4.546875 -10.5625 C 4.265625 -10.34375 4.125 -10.070312 4.125 -9.75 L 4.125 -9.703125 C 4.125 -9.492188 4.164062 -9.304688 4.25 -9.140625 C 4.332031 -8.984375 4.476562 -8.84375 4.6875 -8.71875 C 4.90625 -8.59375 5.203125 -8.472656 5.578125 -8.359375 C 5.953125 -8.242188 6.421875 -8.113281 6.984375 -7.96875 C 7.660156 -7.78125 8.257812 -7.578125 8.78125 -7.359375 C 9.3125 -7.140625 9.753906 -6.875 10.109375 -6.5625 C 10.472656 -6.25 10.742188 -5.882812 10.921875 -5.46875 C 11.109375 -5.050781 11.203125 -4.550781 11.203125 -3.96875 L 11.203125 -3.9375 C 11.203125 -3.269531 11.082031 -2.679688 10.84375 -2.171875 C 10.601562 -1.660156 10.269531 -1.226562 9.84375 -0.875 C 9.414062 -0.53125 8.898438 -0.265625 8.296875 -0.078125 C 7.703125 0.0976562 7.046875 0.1875 6.328125 0.1875 Z M 6.328125 0.1875 "/></g></g></g><g fill="#009373" fill-opacity="1"><g transform="translate(256.841267, 166.874989)"><g><path d="M 4.6875 -10.609375 L 0.640625 -10.609375 L 0.640625 -13.296875 L 11.671875 -13.296875 L 11.671875 -10.609375 L 7.625 -10.609375 L 7.625 0 L 4.6875 0 Z M 4.6875 -10.609375 "/></g></g></g><g fill="#009373" fill-opacity="1"><g transform="translate(269.150749, 166.874989)"><g><path d="M 1.59375 -13.296875 L 11.625 -13.296875 L 11.625 -10.703125 L 4.5 -10.703125 L 4.5 -8 L 10.765625 -8 L 10.765625 -5.390625 L 4.5 -5.390625 L 4.5 -2.609375 L 11.71875 -2.609375 L 11.71875 0 L 1.59375 0 Z M 1.59375 -13.296875 "/></g></g></g><g fill="#009373" fill-opacity="1"><g transform="translate(281.878146, 166.874989)"><g><path d="M 1.59375 -13.296875 L 4.75 -13.296875 L 8.25 -7.671875 L 11.734375 -13.296875 L 14.890625 -13.296875 L 14.890625 0 L 11.984375 0 L 11.984375 -8.6875 L 8.25 -3 L 8.171875 -3 L 4.46875 -8.625 L 4.46875 0 L 1.59375 0 Z M 1.59375 -13.296875 "/></g></g></g><g fill="#009373" fill-opacity="1"><g transform="translate(298.366781, 166.874989)"><g><path d="M 6.15625 -13.390625 L 8.859375 -13.390625 L 14.546875 0 L 11.5 0 L 10.28125 -2.984375 L 4.65625 -2.984375 L 3.4375 0 L 0.453125 0 Z M 9.234375 -5.5625 L 7.46875 -9.875 L 5.703125 -5.5625 Z M 9.234375 -5.5625 "/></g></g></g><g fill="#009373" fill-opacity="1"><g transform="translate(313.373715, 166.874989)"><g/></g></g><g fill="#009373" fill-opacity="1"><g transform="translate(319.072552, 166.874989)"><g><path d="M 1.59375 -13.296875 L 6.78125 -13.296875 C 7.820312 -13.296875 8.773438 -13.128906 9.640625 -12.796875 C 10.503906 -12.460938 11.25 -11.992188 11.875 -11.390625 C 12.507812 -10.796875 12.992188 -10.097656 13.328125 -9.296875 C 13.671875 -8.492188 13.84375 -7.625 13.84375 -6.6875 L 13.84375 -6.65625 C 13.84375 -5.71875 13.671875 -4.84375 13.328125 -4.03125 C 12.992188 -3.21875 12.507812 -2.515625 11.875 -1.921875 C 11.25 -1.328125 10.503906 -0.859375 9.640625 -0.515625 C 8.773438 -0.171875 7.820312 0 6.78125 0 L 1.59375 0 Z M 4.515625 -10.65625 L 4.515625 -2.640625 L 6.78125 -2.640625 C 7.375 -2.640625 7.914062 -2.734375 8.40625 -2.921875 C 8.90625 -3.117188 9.328125 -3.394531 9.671875 -3.75 C 10.023438 -4.101562 10.300781 -4.519531 10.5 -5 C 10.695312 -5.476562 10.796875 -6.015625 10.796875 -6.609375 L 10.796875 -6.65625 C 10.796875 -7.238281 10.695312 -7.773438 10.5 -8.265625 C 10.300781 -8.753906 10.023438 -9.175781 9.671875 -9.53125 C 9.328125 -9.882812 8.90625 -10.160156 8.40625 -10.359375 C 7.914062 -10.554688 7.375 -10.65625 6.78125 -10.65625 Z M 4.515625 -10.65625 "/></g></g></g><g fill="#009373" fill-opacity="1"><g transform="translate(333.92752, 166.874989)"><g><path d="M 1.59375 -13.296875 L 11.625 -13.296875 L 11.625 -10.703125 L 4.5 -10.703125 L 4.5 -8 L 10.765625 -8 L 10.765625 -5.390625 L 4.5 -5.390625 L 4.5 -2.609375 L 11.71875 -2.609375 L 11.71875 0 L 1.59375 0 Z M 1.59375 -13.296875 "/></g></g></g><g fill="#009373" fill-opacity="1"><g transform="translate(226.143534, 193.124987)"><g><path d="M 8 0.234375 C 6.957031 0.234375 6.007812 0.0625 5.15625 -0.28125 C 4.300781 -0.625 3.566406 -1.097656 2.953125 -1.703125 C 2.335938 -2.316406 1.859375 -3.039062 1.515625 -3.875 C 1.171875 -4.707031 1 -5.617188 1 -6.609375 L 1 -6.65625 C 1 -7.601562 1.171875 -8.488281 1.515625 -9.3125 C 1.867188 -10.144531 2.351562 -10.875 2.96875 -11.5 C 3.59375 -12.125 4.328125 -12.617188 5.171875 -12.984375 C 6.023438 -13.347656 6.960938 -13.53125 7.984375 -13.53125 C 8.578125 -13.53125 9.117188 -13.488281 9.609375 -13.40625 C 10.097656 -13.320312 10.550781 -13.203125 10.96875 -13.046875 C 11.382812 -12.898438 11.773438 -12.710938 12.140625 -12.484375 C 12.503906 -12.253906 12.859375 -11.992188 13.203125 -11.703125 L 11.359375 -9.484375 C 11.109375 -9.691406 10.851562 -9.878906 10.59375 -10.046875 C 10.34375 -10.210938 10.082031 -10.351562 9.8125 -10.46875 C 9.539062 -10.582031 9.242188 -10.671875 8.921875 -10.734375 C 8.609375 -10.796875 8.265625 -10.828125 7.890625 -10.828125 C 7.359375 -10.828125 6.859375 -10.71875 6.390625 -10.5 C 5.929688 -10.28125 5.523438 -9.984375 5.171875 -9.609375 C 4.828125 -9.234375 4.554688 -8.796875 4.359375 -8.296875 C 4.160156 -7.796875 4.0625 -7.257812 4.0625 -6.6875 L 4.0625 -6.65625 C 4.0625 -6.039062 4.160156 -5.476562 4.359375 -4.96875 C 4.554688 -4.457031 4.832031 -4.007812 5.1875 -3.625 C 5.550781 -3.25 5.976562 -2.957031 6.46875 -2.75 C 6.957031 -2.539062 7.5 -2.4375 8.09375 -2.4375 C 9.1875 -2.4375 10.101562 -2.703125 10.84375 -3.234375 L 10.84375 -5.125 L 7.90625 -5.125 L 7.90625 -7.65625 L 13.6875 -7.65625 L 13.6875 -1.875 C 13 -1.289062 12.179688 -0.789062 11.234375 -0.375 C 10.296875 0.03125 9.21875 0.234375 8 0.234375 Z M 8 0.234375 "/></g></g></g><g fill="#009373" fill-opacity="1"><g transform="translate(241.036497, 193.124987)"><g><path d="M 1.59375 -13.296875 L 11.625 -13.296875 L 11.625 -10.703125 L 4.5 -10.703125 L 4.5 -8 L 10.765625 -8 L 10.765625 -5.390625 L 4.5 -5.390625 L 4.5 -2.609375 L 11.71875 -2.609375 L 11.71875 0 L 1.59375 0 Z M 1.59375 -13.296875 "/></g></g></g><g fill="#009373" fill-opacity="1"><g transform="translate(253.763894, 193.124987)"><g><path d="M 6.328125 0.1875 C 5.316406 0.1875 4.320312 0.015625 3.34375 -0.328125 C 2.363281 -0.679688 1.476562 -1.21875 0.6875 -1.9375 L 2.40625 -4.015625 C 3.019531 -3.515625 3.644531 -3.117188 4.28125 -2.828125 C 4.925781 -2.535156 5.628906 -2.390625 6.390625 -2.390625 C 6.992188 -2.390625 7.460938 -2.5 7.796875 -2.71875 C 8.128906 -2.945312 8.296875 -3.253906 8.296875 -3.640625 L 8.296875 -3.6875 C 8.296875 -3.875 8.257812 -4.039062 8.1875 -4.1875 C 8.125 -4.332031 7.992188 -4.46875 7.796875 -4.59375 C 7.597656 -4.71875 7.320312 -4.84375 6.96875 -4.96875 C 6.625 -5.101562 6.175781 -5.238281 5.625 -5.375 C 4.945312 -5.539062 4.335938 -5.722656 3.796875 -5.921875 C 3.253906 -6.128906 2.789062 -6.378906 2.40625 -6.671875 C 2.03125 -6.972656 1.738281 -7.34375 1.53125 -7.78125 C 1.320312 -8.226562 1.21875 -8.78125 1.21875 -9.4375 L 1.21875 -9.484375 C 1.21875 -10.085938 1.332031 -10.632812 1.5625 -11.125 C 1.789062 -11.613281 2.109375 -12.035156 2.515625 -12.390625 C 2.929688 -12.742188 3.421875 -13.015625 3.984375 -13.203125 C 4.554688 -13.390625 5.1875 -13.484375 5.875 -13.484375 C 6.84375 -13.484375 7.734375 -13.335938 8.546875 -13.046875 C 9.367188 -12.753906 10.125 -12.335938 10.8125 -11.796875 L 9.296875 -9.59375 C 8.691406 -10 8.101562 -10.316406 7.53125 -10.546875 C 6.96875 -10.785156 6.398438 -10.90625 5.828125 -10.90625 C 5.265625 -10.90625 4.835938 -10.789062 4.546875 -10.5625 C 4.265625 -10.34375 4.125 -10.070312 4.125 -9.75 L 4.125 -9.703125 C 4.125 -9.492188 4.164062 -9.304688 4.25 -9.140625 C 4.332031 -8.984375 4.476562 -8.84375 4.6875 -8.71875 C 4.90625 -8.59375 5.203125 -8.472656 5.578125 -8.359375 C 5.953125 -8.242188 6.421875 -8.113281 6.984375 -7.96875 C 7.660156 -7.78125 8.257812 -7.578125 8.78125 -7.359375 C 9.3125 -7.140625 9.753906 -6.875 10.109375 -6.5625 C 10.472656 -6.25 10.742188 -5.882812 10.921875 -5.46875 C 11.109375 -5.050781 11.203125 -4.550781 11.203125 -3.96875 L 11.203125 -3.9375 C 11.203125 -3.269531 11.082031 -2.679688 10.84375 -2.171875 C 10.601562 -1.660156 10.269531 -1.226562 9.84375 -0.875 C 9.414062 -0.53125 8.898438 -0.265625 8.296875 -0.078125 C 7.703125 0.0976562 7.046875 0.1875 6.328125 0.1875 Z M 6.328125 0.1875 "/></g></g></g><g fill="#009373" fill-opacity="1"><g transform="translate(265.92141, 193.124987)"><g><path d="M 4.6875 -10.609375 L 0.640625 -10.609375 L 0.640625 -13.296875 L 11.671875 -13.296875 L 11.671875 -10.609375 L 7.625 -10.609375 L 7.625 0 L 4.6875 0 Z M 4.6875 -10.609375 "/></g></g></g><g fill="#009373" fill-opacity="1"><g transform="translate(278.230892, 193.124987)"><g><path d="M 1.734375 -13.296875 L 4.65625 -13.296875 L 4.65625 0 L 1.734375 0 Z M 1.734375 -13.296875 "/></g></g></g><g fill="#009373" fill-opacity="1"><g transform="translate(284.613593, 193.124987)"><g><path d="M 8.0625 0.234375 C 7.03125 0.234375 6.082031 0.0507812 5.21875 -0.3125 C 4.363281 -0.675781 3.617188 -1.164062 2.984375 -1.78125 C 2.359375 -2.394531 1.867188 -3.113281 1.515625 -3.9375 C 1.171875 -4.769531 1 -5.660156 1 -6.609375 L 1 -6.65625 C 1 -7.601562 1.175781 -8.488281 1.53125 -9.3125 C 1.894531 -10.144531 2.390625 -10.875 3.015625 -11.5 C 3.640625 -12.125 4.382812 -12.617188 5.25 -12.984375 C 6.125 -13.347656 7.070312 -13.53125 8.09375 -13.53125 C 9.125 -13.53125 10.066406 -13.347656 10.921875 -12.984375 C 11.785156 -12.617188 12.53125 -12.128906 13.15625 -11.515625 C 13.78125 -10.910156 14.265625 -10.191406 14.609375 -9.359375 C 14.960938 -8.523438 15.140625 -7.632812 15.140625 -6.6875 L 15.140625 -6.65625 C 15.140625 -5.695312 14.960938 -4.800781 14.609375 -3.96875 C 14.253906 -3.144531 13.765625 -2.421875 13.140625 -1.796875 C 12.515625 -1.171875 11.765625 -0.675781 10.890625 -0.3125 C 10.023438 0.0507812 9.082031 0.234375 8.0625 0.234375 Z M 8.09375 -2.46875 C 8.675781 -2.46875 9.210938 -2.570312 9.703125 -2.78125 C 10.203125 -3 10.625 -3.296875 10.96875 -3.671875 C 11.320312 -4.054688 11.59375 -4.5 11.78125 -5 C 11.976562 -5.5 12.078125 -6.035156 12.078125 -6.609375 L 12.078125 -6.65625 C 12.078125 -7.21875 11.976562 -7.753906 11.78125 -8.265625 C 11.59375 -8.773438 11.316406 -9.21875 10.953125 -9.59375 C 10.585938 -9.976562 10.160156 -10.28125 9.671875 -10.5 C 9.179688 -10.71875 8.644531 -10.828125 8.0625 -10.828125 C 7.457031 -10.828125 6.910156 -10.71875 6.421875 -10.5 C 5.941406 -10.289062 5.523438 -9.992188 5.171875 -9.609375 C 4.828125 -9.234375 4.554688 -8.796875 4.359375 -8.296875 C 4.160156 -7.796875 4.0625 -7.257812 4.0625 -6.6875 L 4.0625 -6.65625 C 4.0625 -6.082031 4.160156 -5.539062 4.359375 -5.03125 C 4.554688 -4.53125 4.832031 -4.085938 5.1875 -3.703125 C 5.550781 -3.328125 5.976562 -3.023438 6.46875 -2.796875 C 6.957031 -2.578125 7.5 -2.46875 8.09375 -2.46875 Z M 9.203125 -17.515625 L 11.6875 -16.4375 L 9.109375 -14.53125 L 6.90625 -14.53125 Z M 9.203125 -17.515625 "/></g></g></g><g fill="#009373" fill-opacity="1"><g transform="translate(300.760291, 193.124987)"><g><path d="M 1.59375 -13.296875 L 4.296875 -13.296875 L 10.53125 -5.109375 L 10.53125 -13.296875 L 13.40625 -13.296875 L 13.40625 0 L 10.921875 0 L 4.484375 -8.453125 L 4.484375 0 L 1.59375 0 Z M 1.59375 -13.296875 "/></g></g></g><g fill="#009373" fill-opacity="1"><g transform="translate(315.767225, 193.124987)"><g/></g></g><g fill="#009373" fill-opacity="1"><g transform="translate(321.466062, 193.124987)"><g><path d="M 1.59375 -13.296875 L 6.78125 -13.296875 C 7.820312 -13.296875 8.773438 -13.128906 9.640625 -12.796875 C 10.503906 -12.460938 11.25 -11.992188 11.875 -11.390625 C 12.507812 -10.796875 12.992188 -10.097656 13.328125 -9.296875 C 13.671875 -8.492188 13.84375 -7.625 13.84375 -6.6875 L 13.84375 -6.65625 C 13.84375 -5.71875 13.671875 -4.84375 13.328125 -4.03125 C 12.992188 -3.21875 12.507812 -2.515625 11.875 -1.921875 C 11.25 -1.328125 10.503906 -0.859375 9.640625 -0.515625 C 8.773438 -0.171875 7.820312 0 6.78125 0 L 1.59375 0 Z M 4.515625 -10.65625 L 4.515625 -2.640625 L 6.78125 -2.640625 C 7.375 -2.640625 7.914062 -2.734375 8.40625 -2.921875 C 8.90625 -3.117188 9.328125 -3.394531 9.671875 -3.75 C 10.023438 -4.101562 10.300781 -4.519531 10.5 -5 C 10.695312 -5.476562 10.796875 -6.015625 10.796875 -6.609375 L 10.796875 -6.65625 C 10.796875 -7.238281 10.695312 -7.773438 10.5 -8.265625 C 10.300781 -8.753906 10.023438 -9.175781 9.671875 -9.53125 C 9.328125 -9.882812 8.90625 -10.160156 8.40625 -10.359375 C 7.914062 -10.554688 7.375 -10.65625 6.78125 -10.65625 Z M 4.515625 -10.65625 "/></g></g></g><g fill="#009373" fill-opacity="1"><g transform="translate(336.321029, 193.124987)"><g><path d="M 1.59375 -13.296875 L 11.625 -13.296875 L 11.625 -10.703125 L 4.5 -10.703125 L 4.5 -8 L 10.765625 -8 L 10.765625 -5.390625 L 4.5 -5.390625 L 4.5 -2.609375 L 11.71875 -2.609375 L 11.71875 0 L 1.59375 0 Z M 1.59375 -13.296875 "/></g></g></g><g fill="#009373" fill-opacity="1"><g transform="translate(349.049776, 193.124987)"><g/></g></g><g fill="#009373" fill-opacity="1"><g transform="translate(354.748613, 193.124987)"><g/></g></g><g fill="#009373" fill-opacity="1"><g transform="translate(226.143534, 218.772437)"><g><path d="M 1.59375 -13.296875 L 11.625 -13.296875 L 11.625 -10.703125 L 4.5 -10.703125 L 4.5 -8 L 10.765625 -8 L 10.765625 -5.390625 L 4.5 -5.390625 L 4.5 -2.609375 L 11.71875 -2.609375 L 11.71875 0 L 1.59375 0 Z M 1.59375 -13.296875 "/></g></g></g><g fill="#009373" fill-opacity="1"><g transform="translate(242.081927, 218.772437)"><g><path d="M 6.328125 0.1875 C 5.316406 0.1875 4.320312 0.015625 3.34375 -0.328125 C 2.363281 -0.679688 1.476562 -1.21875 0.6875 -1.9375 L 2.40625 -4.015625 C 3.019531 -3.515625 3.644531 -3.117188 4.28125 -2.828125 C 4.925781 -2.535156 5.628906 -2.390625 6.390625 -2.390625 C 6.992188 -2.390625 7.460938 -2.5 7.796875 -2.71875 C 8.128906 -2.945312 8.296875 -3.253906 8.296875 -3.640625 L 8.296875 -3.6875 C 8.296875 -3.875 8.257812 -4.039062 8.1875 -4.1875 C 8.125 -4.332031 7.992188 -4.46875 7.796875 -4.59375 C 7.597656 -4.71875 7.320312 -4.84375 6.96875 -4.96875 C 6.625 -5.101562 6.175781 -5.238281 5.625 -5.375 C 4.945312 -5.539062 4.335938 -5.722656 3.796875 -5.921875 C 3.253906 -6.128906 2.789062 -6.378906 2.40625 -6.671875 C 2.03125 -6.972656 1.738281 -7.34375 1.53125 -7.78125 C 1.320312 -8.226562 1.21875 -8.78125 1.21875 -9.4375 L 1.21875 -9.484375 C 1.21875 -10.085938 1.332031 -10.632812 1.5625 -11.125 C 1.789062 -11.613281 2.109375 -12.035156 2.515625 -12.390625 C 2.929688 -12.742188 3.421875 -13.015625 3.984375 -13.203125 C 4.554688 -13.390625 5.1875 -13.484375 5.875 -13.484375 C 6.84375 -13.484375 7.734375 -13.335938 8.546875 -13.046875 C 9.367188 -12.753906 10.125 -12.335938 10.8125 -11.796875 L 9.296875 -9.59375 C 8.691406 -10 8.101562 -10.316406 7.53125 -10.546875 C 6.96875 -10.785156 6.398438 -10.90625 5.828125 -10.90625 C 5.265625 -10.90625 4.835938 -10.789062 4.546875 -10.5625 C 4.265625 -10.34375 4.125 -10.070312 4.125 -9.75 L 4.125 -9.703125 C 4.125 -9.492188 4.164062 -9.304688 4.25 -9.140625 C 4.332031 -8.984375 4.476562 -8.84375 4.6875 -8.71875 C 4.90625 -8.59375 5.203125 -8.472656 5.578125 -8.359375 C 5.953125 -8.242188 6.421875 -8.113281 6.984375 -7.96875 C 7.660156 -7.78125 8.257812 -7.578125 8.78125 -7.359375 C 9.3125 -7.140625 9.753906 -6.875 10.109375 -6.5625 C 10.472656 -6.25 10.742188 -5.882812 10.921875 -5.46875 C 11.109375 -5.050781 11.203125 -4.550781 11.203125 -3.96875 L 11.203125 -3.9375 C 11.203125 -3.269531 11.082031 -2.679688 10.84375 -2.171875 C 10.601562 -1.660156 10.269531 -1.226562 9.84375 -0.875 C 9.414062 -0.53125 8.898438 -0.265625 8.296875 -0.078125 C 7.703125 0.0976562 7.046875 0.1875 6.328125 0.1875 Z M 6.328125 0.1875 "/></g></g></g><g fill="#009373" fill-opacity="1"><g transform="translate(257.450439, 218.772437)"><g><path d="M 4.6875 -10.609375 L 0.640625 -10.609375 L 0.640625 -13.296875 L 11.671875 -13.296875 L 11.671875 -10.609375 L 7.625 -10.609375 L 7.625 0 L 4.6875 0 Z M 4.6875 -10.609375 "/></g></g></g><g fill="#009373" fill-opacity="1"><g transform="translate(272.970918, 218.772437)"><g><path d="M 6.15625 -13.390625 L 8.859375 -13.390625 L 14.546875 0 L 11.5 0 L 10.28125 -2.984375 L 4.65625 -2.984375 L 3.4375 0 L 0.453125 0 Z M 9.234375 -5.5625 L 7.46875 -9.875 L 5.703125 -5.5625 Z M 9.234375 -5.5625 "/></g></g></g><g fill="#009373" fill-opacity="1"><g transform="translate(291.188847, 218.772437)"><g><path d="M 1.59375 -13.296875 L 6.78125 -13.296875 C 7.820312 -13.296875 8.773438 -13.128906 9.640625 -12.796875 C 10.503906 -12.460938 11.25 -11.992188 11.875 -11.390625 C 12.507812 -10.796875 12.992188 -10.097656 13.328125 -9.296875 C 13.671875 -8.492188 13.84375 -7.625 13.84375 -6.6875 L 13.84375 -6.65625 C 13.84375 -5.71875 13.671875 -4.84375 13.328125 -4.03125 C 12.992188 -3.21875 12.507812 -2.515625 11.875 -1.921875 C 11.25 -1.328125 10.503906 -0.859375 9.640625 -0.515625 C 8.773438 -0.171875 7.820312 0 6.78125 0 L 1.59375 0 Z M 4.515625 -10.65625 L 4.515625 -2.640625 L 6.78125 -2.640625 C 7.375 -2.640625 7.914062 -2.734375 8.40625 -2.921875 C 8.90625 -3.117188 9.328125 -3.394531 9.671875 -3.75 C 10.023438 -4.101562 10.300781 -4.519531 10.5 -5 C 10.695312 -5.476562 10.796875 -6.015625 10.796875 -6.609375 L 10.796875 -6.65625 C 10.796875 -7.238281 10.695312 -7.773438 10.5 -8.265625 C 10.300781 -8.753906 10.023438 -9.175781 9.671875 -9.53125 C 9.328125 -9.882812 8.90625 -10.160156 8.40625 -10.359375 C 7.914062 -10.554688 7.375 -10.65625 6.78125 -10.65625 Z M 4.515625 -10.65625 "/></g></g></g><g fill="#009373" fill-opacity="1"><g transform="translate(309.25481, 218.772437)"><g><path d="M 1.734375 -13.296875 L 4.65625 -13.296875 L 4.65625 0 L 1.734375 0 Z M 1.734375 -13.296875 "/></g></g></g><g fill="#009373" fill-opacity="1"><g transform="translate(318.848506, 218.772437)"><g><path d="M 6.15625 -13.390625 L 8.859375 -13.390625 L 14.546875 0 L 11.5 0 L 10.28125 -2.984375 L 4.65625 -2.984375 L 3.4375 0 L 0.453125 0 Z M 9.234375 -5.5625 L 7.46875 -9.875 L 5.703125 -5.5625 Z M 9.234375 -5.5625 "/></g></g></g><g fill="#009373" fill-opacity="1"><g transform="translate(337.06644, 218.772437)"><g><path d="M 6.328125 0.1875 C 5.316406 0.1875 4.320312 0.015625 3.34375 -0.328125 C 2.363281 -0.679688 1.476562 -1.21875 0.6875 -1.9375 L 2.40625 -4.015625 C 3.019531 -3.515625 3.644531 -3.117188 4.28125 -2.828125 C 4.925781 -2.535156 5.628906 -2.390625 6.390625 -2.390625 C 6.992188 -2.390625 7.460938 -2.5 7.796875 -2.71875 C 8.128906 -2.945312 8.296875 -3.253906 8.296875 -3.640625 L 8.296875 -3.6875 C 8.296875 -3.875 8.257812 -4.039062 8.1875 -4.1875 C 8.125 -4.332031 7.992188 -4.46875 7.796875 -4.59375 C 7.597656 -4.71875 7.320312 -4.84375 6.96875 -4.96875 C 6.625 -5.101562 6.175781 -5.238281 5.625 -5.375 C 4.945312 -5.539062 4.335938 -5.722656 3.796875 -5.921875 C 3.253906 -6.128906 2.789062 -6.378906 2.40625 -6.671875 C 2.03125 -6.972656 1.738281 -7.34375 1.53125 -7.78125 C 1.320312 -8.226562 1.21875 -8.78125 1.21875 -9.4375 L 1.21875 -9.484375 C 1.21875 -10.085938 1.332031 -10.632812 1.5625 -11.125 C 1.789062 -11.613281 2.109375 -12.035156 2.515625 -12.390625 C 2.929688 -12.742188 3.421875 -13.015625 3.984375 -13.203125 C 4.554688 -13.390625 5.1875 -13.484375 5.875 -13.484375 C 6.84375 -13.484375 7.734375 -13.335938 8.546875 -13.046875 C 9.367188 -12.753906 10.125 -12.335938 10.8125 -11.796875 L 9.296875 -9.59375 C 8.691406 -10 8.101562 -10.316406 7.53125 -10.546875 C 6.96875 -10.785156 6.398438 -10.90625 5.828125 -10.90625 C 5.265625 -10.90625 4.835938 -10.789062 4.546875 -10.5625 C 4.265625 -10.34375 4.125 -10.070312 4.125 -9.75 L 4.125 -9.703125 C 4.125 -9.492188 4.164062 -9.304688 4.25 -9.140625 C 4.332031 -8.984375 4.476562 -8.84375 4.6875 -8.71875 C 4.90625 -8.59375 5.203125 -8.472656 5.578125 -8.359375 C 5.953125 -8.242188 6.421875 -8.113281 6.984375 -7.96875 C 7.660156 -7.78125 8.257812 -7.578125 8.78125 -7.359375 C 9.3125 -7.140625 9.753906 -6.875 10.109375 -6.5625 C 10.472656 -6.25 10.742188 -5.882812 10.921875 -5.46875 C 11.109375 -5.050781 11.203125 -4.550781 11.203125 -3.96875 L 11.203125 -3.9375 C 11.203125 -3.269531 11.082031 -2.679688 10.84375 -2.171875 C 10.601562 -1.660156 10.269531 -1.226562 9.84375 -0.875 C 9.414062 -0.53125 8.898438 -0.265625 8.296875 -0.078125 C 7.703125 0.0976562 7.046875 0.1875 6.328125 0.1875 Z M 6.328125 0.1875 "/></g></g></g><path stroke-linecap="butt" transform="matrix(0, -0.75, 0.75, 0, 208.304523, 224.370585)" fill="none" stroke-linejoin="miter" d="M -0.000677978 3.00022 L 99.129537 3.00022 " stroke="#009373" stroke-width="6" stroke-opacity="1" stroke-miterlimit="4"/></svg>