<svg xmlns="http://www.w3.org/2000/svg" xmlns:xlink="http://www.w3.org/1999/xlink" width="256" zoomAndPan="magnify" viewBox="0 0 192 89.999999" height="120" preserveAspectRatio="xMidYMid meet" version="1.0"><path fill="#ffffff" d="M 19.472656 62.742188 C 16.964844 62.742188 14.503906 62.3125 12.089844 61.453125 C 9.679688 60.589844 7.488281 59.265625 5.507812 57.476562 L 9.792969 52.351562 C 11.296875 53.574219 12.84375 54.550781 14.425781 55.273438 C 16.007812 55.992188 17.734375 56.347656 19.613281 56.347656 C 21.117188 56.347656 22.28125 56.074219 23.109375 55.527344 C 23.941406 54.976562 24.359375 54.21875 24.359375 53.25 L 24.359375 53.152344 C 24.359375 52.683594 24.269531 52.269531 24.097656 51.914062 C 23.929688 51.550781 23.601562 51.210938 23.109375 50.902344 C 22.625 50.585938 21.953125 50.269531 21.085938 49.953125 C 20.226562 49.640625 19.109375 49.308594 17.734375 48.96875 C 16.070312 48.558594 14.566406 48.105469 13.21875 47.605469 C 11.875 47.105469 10.730469 46.488281 9.792969 45.753906 C 8.847656 45.015625 8.121094 44.097656 7.605469 42.996094 C 7.085938 41.902344 6.832031 40.539062 6.832031 38.910156 L 6.832031 38.8125 C 6.832031 37.3125 7.109375 35.957031 7.671875 34.75 C 8.234375 33.542969 9.027344 32.503906 10.042969 31.628906 C 11.066406 30.746094 12.28125 30.074219 13.691406 29.605469 C 15.101562 29.132812 16.65625 28.894531 18.347656 28.894531 C 20.761719 28.894531 22.976562 29.257812 24.996094 29.980469 C 27.015625 30.699219 28.871094 31.730469 30.566406 33.078125 L 26.804688 38.535156 C 25.332031 37.53125 23.890625 36.738281 22.484375 36.164062 C 21.074219 35.582031 19.664062 35.289062 18.25 35.289062 C 16.839844 35.289062 15.78125 35.566406 15.078125 36.113281 C 14.375 36.664062 14.023438 37.34375 14.023438 38.160156 L 14.023438 38.25 C 14.023438 38.785156 14.125 39.246094 14.328125 39.636719 C 14.527344 40.027344 14.894531 40.382812 15.425781 40.699219 C 15.960938 41.007812 16.6875 41.304688 17.613281 41.585938 C 18.535156 41.871094 19.707031 42.199219 21.121094 42.574219 C 22.777344 43.015625 24.257812 43.507812 25.558594 44.058594 C 26.863281 44.609375 27.960938 45.265625 28.851562 46.03125 C 29.742188 46.796875 30.414062 47.699219 30.867188 48.730469 C 31.324219 49.765625 31.550781 51.003906 31.550781 52.449219 L 31.550781 52.539062 C 31.550781 54.171875 31.253906 55.625 30.65625 56.894531 C 30.0625 58.164062 29.230469 59.226562 28.167969 60.09375 C 27.101562 60.953125 25.832031 61.609375 24.359375 62.066406 C 22.890625 62.515625 21.261719 62.742188 19.472656 62.742188 Z M 19.472656 62.742188 " fill-opacity="1" fill-rule="nonzero"/><path fill="#ffffff" d="M 53.6875 62.832031 C 51.121094 62.832031 48.78125 62.410156 46.667969 61.570312 C 44.550781 60.722656 42.730469 59.546875 41.210938 58.046875 C 39.691406 56.539062 38.511719 54.753906 37.664062 52.6875 C 36.8125 50.617188 36.390625 48.355469 36.390625 45.910156 L 36.390625 45.820312 C 36.390625 43.46875 36.816406 41.273438 37.679688 39.222656 C 38.542969 37.164062 39.742188 35.363281 41.277344 33.8125 C 42.8125 32.257812 44.632812 31.035156 46.730469 30.144531 C 48.832031 29.253906 51.132812 28.804688 53.640625 28.804688 C 55.113281 28.804688 56.453125 28.910156 57.660156 29.117188 C 58.867188 29.316406 59.988281 29.605469 61.023438 29.980469 C 62.054688 30.355469 63.023438 30.828125 63.933594 31.390625 C 64.847656 31.953125 65.722656 32.59375 66.566406 33.316406 L 62.007812 38.8125 C 61.382812 38.28125 60.753906 37.808594 60.125 37.402344 C 59.5 36.996094 58.847656 36.652344 58.175781 36.375 C 57.507812 36.09375 56.78125 35.871094 55.996094 35.714844 C 55.214844 35.558594 54.351562 35.476562 53.410156 35.476562 C 52.09375 35.476562 50.863281 35.753906 49.71875 36.300781 C 48.574219 36.851562 47.570312 37.585938 46.707031 38.511719 C 45.847656 39.4375 45.175781 40.519531 44.683594 41.757812 C 44.199219 42.992188 43.960938 44.316406 43.960938 45.722656 L 43.960938 45.820312 C 43.960938 47.328125 44.199219 48.714844 44.683594 49.980469 C 45.175781 51.246094 45.863281 52.351562 46.757812 53.289062 C 47.648438 54.234375 48.699219 54.960938 49.90625 55.476562 C 51.113281 55.996094 52.453125 56.25 53.925781 56.25 C 56.621094 56.25 58.894531 55.59375 60.746094 54.277344 L 60.746094 49.578125 L 53.453125 49.578125 L 53.453125 43.332031 L 67.742188 43.332031 L 67.742188 57.613281 C 66.050781 59.0625 64.035156 60.292969 61.699219 61.308594 C 59.367188 62.324219 56.695312 62.832031 53.6875 62.832031 Z M 53.6875 62.832031 " fill-opacity="1" fill-rule="nonzero"/><path fill="#ffffff" d="M 74.699219 29.367188 L 99.519531 29.367188 L 99.519531 35.804688 L 81.894531 35.804688 L 81.894531 42.484375 L 97.40625 42.484375 L 97.40625 48.917969 L 81.894531 48.917969 L 81.894531 55.828125 L 99.753906 55.828125 L 99.753906 62.269531 L 74.699219 62.269531 Z M 74.699219 29.367188 " fill-opacity="1" fill-rule="nonzero"/><path fill="#ffffff" d="M 121.351562 35.148438 C 120.824219 35.148438 120.300781 35.058594 119.792969 34.878906 C 119.28125 34.695312 118.816406 34.414062 118.40625 34.039062 L 119.304688 32.953125 C 119.625 33.214844 119.949219 33.425781 120.28125 33.574219 C 120.617188 33.726562 120.984375 33.804688 121.382812 33.804688 C 121.695312 33.804688 121.941406 33.746094 122.117188 33.632812 C 122.289062 33.511719 122.378906 33.351562 122.378906 33.152344 L 122.378906 33.125 C 122.378906 33.027344 122.359375 32.941406 122.320312 32.863281 C 122.289062 32.789062 122.21875 32.71875 122.117188 32.652344 C 122.011719 32.585938 121.867188 32.523438 121.683594 32.457031 C 121.503906 32.386719 121.269531 32.316406 120.984375 32.246094 C 120.628906 32.160156 120.308594 32.0625 120.027344 31.960938 C 119.746094 31.851562 119.503906 31.722656 119.304688 31.566406 C 119.109375 31.410156 118.953125 31.21875 118.847656 30.988281 C 118.738281 30.757812 118.683594 30.46875 118.683594 30.125 L 118.683594 30.101562 C 118.683594 29.785156 118.742188 29.5 118.863281 29.242188 C 118.980469 28.988281 119.148438 28.769531 119.359375 28.582031 C 119.578125 28.398438 119.832031 28.257812 120.128906 28.160156 C 120.425781 28.0625 120.753906 28.011719 121.113281 28.011719 C 121.621094 28.011719 122.085938 28.089844 122.507812 28.242188 C 122.9375 28.394531 123.332031 28.613281 123.691406 28.894531 L 122.898438 30.042969 C 122.585938 29.832031 122.277344 29.664062 121.976562 29.546875 C 121.683594 29.421875 121.386719 29.359375 121.089844 29.359375 C 120.796875 29.359375 120.570312 29.417969 120.421875 29.539062 C 120.273438 29.652344 120.199219 29.792969 120.199219 29.960938 L 120.199219 29.984375 C 120.199219 30.097656 120.222656 30.195312 120.265625 30.28125 C 120.308594 30.359375 120.382812 30.433594 120.492188 30.5 C 120.609375 30.566406 120.761719 30.628906 120.957031 30.6875 C 121.15625 30.75 121.398438 30.816406 121.691406 30.890625 C 122.046875 30.988281 122.359375 31.09375 122.632812 31.210938 C 122.910156 31.324219 123.140625 31.460938 123.324219 31.625 C 123.515625 31.789062 123.65625 31.980469 123.75 32.195312 C 123.847656 32.414062 123.894531 32.675781 123.894531 32.980469 L 123.894531 32.996094 C 123.894531 33.34375 123.832031 33.652344 123.707031 33.917969 C 123.582031 34.183594 123.40625 34.410156 123.1875 34.59375 C 122.960938 34.773438 122.691406 34.914062 122.378906 35.011719 C 122.066406 35.101562 121.726562 35.148438 121.351562 35.148438 Z M 121.351562 35.148438 " fill-opacity="1" fill-rule="nonzero"/><path fill="#ffffff" d="M 125.296875 28.109375 L 126.824219 28.109375 L 126.824219 35.050781 L 125.296875 35.050781 Z M 125.296875 28.109375 " fill-opacity="1" fill-rule="nonzero"/><path fill="#ffffff" d="M 131.027344 35.148438 C 130.5 35.148438 129.980469 35.058594 129.46875 34.878906 C 128.957031 34.695312 128.496094 34.414062 128.082031 34.039062 L 128.980469 32.953125 C 129.300781 33.214844 129.628906 33.425781 129.960938 33.574219 C 130.296875 33.726562 130.664062 33.804688 131.0625 33.804688 C 131.375 33.804688 131.621094 33.746094 131.796875 33.632812 C 131.96875 33.511719 132.054688 33.351562 132.054688 33.152344 L 132.054688 33.125 C 132.054688 33.027344 132.035156 32.941406 132 32.863281 C 131.964844 32.789062 131.898438 32.71875 131.796875 32.652344 C 131.691406 32.585938 131.546875 32.523438 131.363281 32.457031 C 131.183594 32.386719 130.949219 32.316406 130.660156 32.246094 C 130.304688 32.160156 129.988281 32.0625 129.707031 31.960938 C 129.421875 31.851562 129.179688 31.722656 128.980469 31.566406 C 128.785156 31.410156 128.632812 31.21875 128.523438 30.988281 C 128.414062 30.757812 128.359375 30.46875 128.359375 30.125 L 128.359375 30.101562 C 128.359375 29.785156 128.421875 29.5 128.539062 29.242188 C 128.660156 28.988281 128.824219 28.769531 129.039062 28.582031 C 129.253906 28.398438 129.511719 28.257812 129.804688 28.160156 C 130.101562 28.0625 130.433594 28.011719 130.792969 28.011719 C 131.296875 28.011719 131.761719 28.089844 132.1875 28.242188 C 132.613281 28.394531 133.011719 28.613281 133.371094 28.894531 L 132.578125 30.042969 C 132.261719 29.832031 131.953125 29.664062 131.65625 29.546875 C 131.363281 29.421875 131.066406 29.359375 130.765625 29.359375 C 130.472656 29.359375 130.25 29.417969 130.097656 29.539062 C 129.953125 29.652344 129.878906 29.792969 129.878906 29.960938 L 129.878906 29.984375 C 129.878906 30.097656 129.898438 30.195312 129.945312 30.28125 C 129.988281 30.359375 130.0625 30.433594 130.171875 30.5 C 130.285156 30.566406 130.441406 30.628906 130.636719 30.6875 C 130.832031 30.75 131.078125 30.816406 131.371094 30.890625 C 131.722656 30.988281 132.035156 31.09375 132.308594 31.210938 C 132.585938 31.324219 132.816406 31.460938 133.003906 31.625 C 133.191406 31.789062 133.332031 31.980469 133.425781 32.195312 C 133.523438 32.414062 133.574219 32.675781 133.574219 32.980469 L 133.574219 32.996094 C 133.574219 33.34375 133.511719 33.652344 133.386719 33.917969 C 133.257812 34.183594 133.085938 34.410156 132.863281 34.59375 C 132.640625 34.773438 132.371094 34.914062 132.054688 35.011719 C 131.746094 35.101562 131.402344 35.148438 131.027344 35.148438 Z M 131.027344 35.148438 " fill-opacity="1" fill-rule="nonzero"/><path fill="#ffffff" d="M 136.519531 29.511719 L 134.40625 29.511719 L 134.40625 28.109375 L 140.164062 28.109375 L 140.164062 29.511719 L 138.050781 29.511719 L 138.050781 35.050781 L 136.519531 35.050781 Z M 136.519531 29.511719 " fill-opacity="1" fill-rule="nonzero"/><path fill="#ffffff" d="M 141.328125 28.109375 L 146.566406 28.109375 L 146.566406 29.464844 L 142.84375 29.464844 L 142.84375 30.875 L 146.117188 30.875 L 146.117188 32.238281 L 142.84375 32.238281 L 142.84375 33.6875 L 146.613281 33.6875 L 146.613281 35.050781 L 141.328125 35.050781 Z M 141.328125 28.109375 " fill-opacity="1" fill-rule="nonzero"/><path fill="#ffffff" d="M 147.972656 28.109375 L 149.621094 28.109375 L 151.445312 31.046875 L 153.265625 28.109375 L 154.914062 28.109375 L 154.914062 35.050781 L 153.394531 35.050781 L 153.394531 30.515625 L 151.445312 33.484375 L 151.40625 33.484375 L 149.472656 30.546875 L 149.472656 35.050781 L 147.972656 35.050781 Z M 147.972656 28.109375 " fill-opacity="1" fill-rule="nonzero"/><path fill="#ffffff" d="M 158.960938 28.0625 L 160.371094 28.0625 L 163.339844 35.050781 L 161.75 35.050781 L 161.113281 33.492188 L 158.179688 33.492188 L 157.542969 35.050781 L 155.984375 35.050781 Z M 160.566406 32.148438 L 159.644531 29.894531 L 158.722656 32.148438 Z M 160.566406 32.148438 " fill-opacity="1" fill-rule="nonzero"/><path fill="#ffffff" d="M 167.386719 28.109375 L 170.097656 28.109375 C 170.636719 28.109375 171.136719 28.199219 171.589844 28.371094 C 172.039062 28.546875 172.429688 28.792969 172.753906 29.105469 C 173.085938 29.414062 173.339844 29.78125 173.511719 30.199219 C 173.691406 30.617188 173.78125 31.070312 173.78125 31.558594 L 173.78125 31.578125 C 173.78125 32.066406 173.691406 32.523438 173.511719 32.945312 C 173.339844 33.371094 173.085938 33.738281 172.753906 34.046875 C 172.429688 34.359375 172.039062 34.601562 171.589844 34.78125 C 171.136719 34.960938 170.636719 35.050781 170.097656 35.050781 L 167.386719 35.050781 Z M 168.914062 29.488281 L 168.914062 33.671875 L 170.097656 33.671875 C 170.40625 33.671875 170.6875 33.625 170.945312 33.527344 C 171.207031 33.425781 171.425781 33.277344 171.605469 33.09375 C 171.789062 32.910156 171.933594 32.691406 172.035156 32.441406 C 172.140625 32.191406 172.191406 31.910156 172.191406 31.601562 L 172.191406 31.578125 C 172.191406 31.273438 172.140625 30.992188 172.035156 30.738281 C 171.933594 30.480469 171.789062 30.261719 171.605469 30.074219 C 171.425781 29.890625 171.207031 29.746094 170.945312 29.644531 C 170.6875 29.542969 170.40625 29.488281 170.097656 29.488281 Z M 168.914062 29.488281 " fill-opacity="1" fill-rule="nonzero"/><path fill="#ffffff" d="M 175.140625 28.109375 L 180.378906 28.109375 L 180.378906 29.464844 L 176.660156 29.464844 L 176.660156 30.875 L 179.929688 30.875 L 179.929688 32.238281 L 176.660156 32.238281 L 176.660156 33.6875 L 180.425781 33.6875 L 180.425781 35.050781 L 175.140625 35.050781 Z M 175.140625 28.109375 " fill-opacity="1" fill-rule="nonzero"/><path fill="#ffffff" d="M 122.222656 48.875 C 121.679688 48.875 121.183594 48.785156 120.738281 48.605469 C 120.292969 48.425781 119.910156 48.179688 119.589844 47.863281 C 119.265625 47.542969 119.019531 47.167969 118.839844 46.730469 C 118.660156 46.296875 118.570312 45.820312 118.570312 45.304688 L 118.570312 45.277344 C 118.570312 44.785156 118.660156 44.324219 118.839844 43.890625 C 119.023438 43.457031 119.273438 43.078125 119.597656 42.75 C 119.921875 42.425781 120.304688 42.167969 120.746094 41.976562 C 121.191406 41.785156 121.679688 41.691406 122.214844 41.691406 C 122.523438 41.691406 122.804688 41.710938 123.0625 41.753906 C 123.316406 41.800781 123.554688 41.863281 123.773438 41.941406 C 123.988281 42.019531 124.191406 42.117188 124.382812 42.238281 C 124.574219 42.355469 124.757812 42.492188 124.9375 42.644531 L 123.976562 43.800781 C 123.847656 43.695312 123.710938 43.597656 123.578125 43.507812 C 123.445312 43.421875 123.308594 43.351562 123.167969 43.289062 C 123.027344 43.230469 122.871094 43.183594 122.703125 43.148438 C 122.542969 43.117188 122.363281 43.101562 122.167969 43.101562 C 121.890625 43.101562 121.628906 43.160156 121.382812 43.273438 C 121.140625 43.386719 120.929688 43.542969 120.746094 43.738281 C 120.566406 43.933594 120.425781 44.160156 120.324219 44.421875 C 120.21875 44.683594 120.167969 44.964844 120.167969 45.261719 L 120.167969 45.277344 C 120.167969 45.601562 120.21875 45.894531 120.324219 46.160156 C 120.425781 46.425781 120.570312 46.660156 120.753906 46.859375 C 120.945312 47.058594 121.167969 47.210938 121.425781 47.316406 C 121.679688 47.429688 121.960938 47.480469 122.273438 47.480469 C 122.84375 47.480469 123.320312 47.34375 123.707031 47.066406 L 123.707031 46.078125 L 122.175781 46.078125 L 122.175781 44.757812 L 125.191406 44.757812 L 125.191406 47.773438 C 124.832031 48.082031 124.40625 48.339844 123.910156 48.558594 C 123.421875 48.769531 122.859375 48.875 122.222656 48.875 Z M 122.222656 48.875 " fill-opacity="1" fill-rule="nonzero"/><path fill="#ffffff" d="M 126.652344 41.8125 L 131.890625 41.8125 L 131.890625 43.167969 L 128.167969 43.167969 L 128.167969 44.578125 L 131.441406 44.578125 L 131.441406 45.941406 L 128.167969 45.941406 L 128.167969 47.390625 L 131.9375 47.390625 L 131.9375 48.753906 L 126.652344 48.753906 Z M 126.652344 41.8125 " fill-opacity="1" fill-rule="nonzero"/><path fill="#ffffff" d="M 135.769531 48.851562 C 135.238281 48.851562 134.71875 48.761719 134.210938 48.582031 C 133.699219 48.398438 133.234375 48.117188 132.824219 47.742188 L 133.722656 46.65625 C 134.039062 46.917969 134.367188 47.125 134.699219 47.277344 C 135.035156 47.429688 135.402344 47.503906 135.800781 47.503906 C 136.113281 47.503906 136.359375 47.449219 136.535156 47.335938 C 136.707031 47.214844 136.796875 47.054688 136.796875 46.851562 L 136.796875 46.828125 C 136.796875 46.730469 136.773438 46.644531 136.738281 46.566406 C 136.707031 46.492188 136.636719 46.421875 136.535156 46.355469 C 136.429688 46.289062 136.285156 46.226562 136.101562 46.160156 C 135.921875 46.089844 135.6875 46.019531 135.402344 45.949219 C 135.046875 45.863281 134.726562 45.765625 134.445312 45.664062 C 134.164062 45.554688 133.921875 45.421875 133.722656 45.269531 C 133.523438 45.113281 133.371094 44.921875 133.265625 44.691406 C 133.152344 44.460938 133.101562 44.167969 133.101562 43.828125 L 133.101562 43.800781 C 133.101562 43.488281 133.160156 43.203125 133.28125 42.945312 C 133.398438 42.691406 133.566406 42.472656 133.777344 42.285156 C 133.992188 42.101562 134.25 41.960938 134.542969 41.863281 C 134.84375 41.761719 135.171875 41.714844 135.53125 41.714844 C 136.039062 41.714844 136.503906 41.792969 136.925781 41.941406 C 137.355469 42.097656 137.75 42.3125 138.109375 42.59375 L 137.316406 43.746094 C 137 43.535156 136.695312 43.367188 136.394531 43.246094 C 136.101562 43.125 135.804688 43.058594 135.507812 43.058594 C 135.214844 43.058594 134.988281 43.121094 134.839844 43.238281 C 134.691406 43.355469 134.617188 43.496094 134.617188 43.664062 L 134.617188 43.6875 C 134.617188 43.796875 134.636719 43.894531 134.683594 43.980469 C 134.726562 44.0625 134.800781 44.136719 134.910156 44.203125 C 135.027344 44.265625 135.179688 44.332031 135.375 44.390625 C 135.574219 44.449219 135.816406 44.519531 136.109375 44.59375 C 136.464844 44.691406 136.773438 44.796875 137.046875 44.910156 C 137.324219 45.027344 137.554688 45.164062 137.742188 45.328125 C 137.929688 45.492188 138.070312 45.683594 138.167969 45.898438 C 138.265625 46.117188 138.3125 46.378906 138.3125 46.683594 L 138.3125 46.699219 C 138.3125 47.046875 138.25 47.355469 138.125 47.621094 C 138 47.886719 137.824219 48.113281 137.601562 48.296875 C 137.378906 48.476562 137.109375 48.613281 136.796875 48.710938 C 136.484375 48.804688 136.144531 48.851562 135.769531 48.851562 Z M 135.769531 48.851562 " fill-opacity="1" fill-rule="nonzero"/><path fill="#ffffff" d="M 141.257812 43.214844 L 139.144531 43.214844 L 139.144531 41.8125 L 144.902344 41.8125 L 144.902344 43.214844 L 142.789062 43.214844 L 142.789062 48.753906 L 141.257812 48.753906 Z M 141.257812 43.214844 " fill-opacity="1" fill-rule="nonzero"/><path fill="#ffffff" d="M 146.140625 41.8125 L 147.667969 41.8125 L 147.667969 48.753906 L 146.140625 48.753906 Z M 146.140625 41.8125 " fill-opacity="1" fill-rule="nonzero"/><path fill="#ffffff" d="M 152.777344 48.875 C 152.238281 48.875 151.742188 48.78125 151.292969 48.589844 C 150.847656 48.402344 150.457031 48.144531 150.125 47.824219 C 149.800781 47.503906 149.542969 47.128906 149.359375 46.699219 C 149.179688 46.265625 149.089844 45.800781 149.089844 45.304688 L 149.089844 45.277344 C 149.089844 44.785156 149.183594 44.324219 149.367188 43.890625 C 149.558594 43.457031 149.816406 43.078125 150.144531 42.75 C 150.46875 42.425781 150.855469 42.167969 151.308594 41.976562 C 151.765625 41.785156 152.257812 41.691406 152.792969 41.691406 C 153.332031 41.691406 153.824219 41.785156 154.269531 41.976562 C 154.71875 42.167969 155.109375 42.421875 155.4375 42.742188 C 155.761719 43.058594 156.015625 43.433594 156.195312 43.867188 C 156.378906 44.304688 156.472656 44.769531 156.472656 45.261719 L 156.472656 45.277344 C 156.472656 45.78125 156.378906 46.246094 156.195312 46.683594 C 156.007812 47.113281 155.753906 47.488281 155.429688 47.816406 C 155.101562 48.140625 154.710938 48.402344 154.253906 48.589844 C 153.800781 48.78125 153.308594 48.875 152.777344 48.875 Z M 152.792969 47.464844 C 153.097656 47.464844 153.375 47.410156 153.632812 47.300781 C 153.894531 47.1875 154.113281 47.03125 154.292969 46.835938 C 154.476562 46.636719 154.621094 46.40625 154.71875 46.144531 C 154.820312 45.882812 154.875 45.601562 154.875 45.304688 L 154.875 45.277344 C 154.875 44.984375 154.820312 44.707031 154.71875 44.4375 C 154.621094 44.171875 154.476562 43.941406 154.285156 43.746094 C 154.09375 43.546875 153.871094 43.386719 153.617188 43.273438 C 153.359375 43.160156 153.082031 43.101562 152.777344 43.101562 C 152.460938 43.101562 152.175781 43.160156 151.921875 43.273438 C 151.667969 43.382812 151.453125 43.539062 151.269531 43.738281 C 151.089844 43.933594 150.945312 44.160156 150.84375 44.421875 C 150.738281 44.683594 150.6875 44.964844 150.6875 45.261719 L 150.6875 45.277344 C 150.6875 45.578125 150.738281 45.863281 150.84375 46.128906 C 150.945312 46.386719 151.089844 46.621094 151.277344 46.820312 C 151.464844 47.015625 151.6875 47.175781 151.945312 47.292969 C 152.199219 47.40625 152.484375 47.464844 152.792969 47.464844 Z M 153.371094 39.609375 L 154.667969 40.171875 L 153.324219 41.167969 L 152.171875 41.167969 Z M 153.371094 39.609375 " fill-opacity="1" fill-rule="nonzero"/><path fill="#ffffff" d="M 157.828125 41.8125 L 159.238281 41.8125 L 162.492188 46.085938 L 162.492188 41.8125 L 163.996094 41.8125 L 163.996094 48.753906 L 162.699219 48.753906 L 159.335938 44.339844 L 159.335938 48.753906 L 157.828125 48.753906 Z M 157.828125 41.8125 " fill-opacity="1" fill-rule="nonzero"/><path fill="#ffffff" d="M 168.636719 41.8125 L 171.34375 41.8125 C 171.886719 41.8125 172.386719 41.898438 172.835938 42.074219 C 173.289062 42.25 173.679688 42.492188 174.003906 42.808594 C 174.335938 43.117188 174.585938 43.484375 174.761719 43.902344 C 174.941406 44.320312 175.03125 44.773438 175.03125 45.261719 L 175.03125 45.277344 C 175.03125 45.769531 174.941406 46.226562 174.761719 46.648438 C 174.585938 47.074219 174.335938 47.441406 174.003906 47.75 C 173.679688 48.058594 173.289062 48.304688 172.835938 48.484375 C 172.386719 48.664062 171.886719 48.753906 171.34375 48.753906 L 168.636719 48.753906 Z M 170.164062 43.191406 L 170.164062 47.375 L 171.34375 47.375 C 171.65625 47.375 171.9375 47.324219 172.191406 47.226562 C 172.453125 47.125 172.675781 46.980469 172.855469 46.796875 C 173.039062 46.613281 173.183594 46.394531 173.285156 46.144531 C 173.386719 45.894531 173.441406 45.613281 173.441406 45.304688 L 173.441406 45.277344 C 173.441406 44.976562 173.386719 44.695312 173.285156 44.4375 C 173.183594 44.183594 173.039062 43.964844 172.855469 43.777344 C 172.675781 43.59375 172.453125 43.449219 172.191406 43.347656 C 171.9375 43.242188 171.65625 43.191406 171.34375 43.191406 Z M 170.164062 43.191406 " fill-opacity="1" fill-rule="nonzero"/><path fill="#ffffff" d="M 176.390625 41.8125 L 181.628906 41.8125 L 181.628906 43.167969 L 177.910156 43.167969 L 177.910156 44.578125 L 181.179688 44.578125 L 181.179688 45.941406 L 177.910156 45.941406 L 177.910156 47.390625 L 181.675781 47.390625 L 181.675781 48.753906 L 176.390625 48.753906 Z M 176.390625 41.8125 " fill-opacity="1" fill-rule="nonzero"/><path fill="#ffffff" d="M 118.878906 55.199219 L 124.117188 55.199219 L 124.117188 56.554688 L 120.394531 56.554688 L 120.394531 57.964844 L 123.667969 57.964844 L 123.667969 59.328125 L 120.394531 59.328125 L 120.394531 60.777344 L 124.164062 60.777344 L 124.164062 62.140625 L 118.878906 62.140625 Z M 118.878906 55.199219 " fill-opacity="1" fill-rule="nonzero"/><path fill="#ffffff" d="M 129.671875 62.238281 C 129.140625 62.238281 128.621094 62.148438 128.113281 61.96875 C 127.601562 61.785156 127.136719 61.503906 126.726562 61.128906 L 127.621094 60.046875 C 127.941406 60.304688 128.269531 60.515625 128.601562 60.664062 C 128.9375 60.816406 129.304688 60.894531 129.703125 60.894531 C 130.015625 60.894531 130.261719 60.835938 130.4375 60.722656 C 130.609375 60.605469 130.699219 60.441406 130.699219 60.242188 L 130.699219 60.214844 C 130.699219 60.117188 130.675781 60.03125 130.640625 59.957031 C 130.609375 59.878906 130.539062 59.808594 130.4375 59.742188 C 130.332031 59.679688 130.1875 59.613281 130.003906 59.546875 C 129.824219 59.476562 129.589844 59.40625 129.304688 59.335938 C 128.949219 59.25 128.628906 59.152344 128.347656 59.050781 C 128.066406 58.941406 127.824219 58.8125 127.621094 58.660156 C 127.425781 58.5 127.273438 58.308594 127.167969 58.078125 C 127.054688 57.847656 127.003906 57.558594 127.003906 57.214844 L 127.003906 57.191406 C 127.003906 56.875 127.0625 56.589844 127.183594 56.332031 C 127.300781 56.078125 127.46875 55.859375 127.679688 55.671875 C 127.894531 55.488281 128.152344 55.347656 128.445312 55.25 C 128.746094 55.152344 129.074219 55.101562 129.433594 55.101562 C 129.9375 55.101562 130.402344 55.179688 130.828125 55.332031 C 131.257812 55.484375 131.652344 55.703125 132.011719 55.984375 L 131.21875 57.132812 C 130.902344 56.921875 130.597656 56.757812 130.296875 56.636719 C 130.003906 56.511719 129.707031 56.449219 129.410156 56.449219 C 129.117188 56.449219 128.890625 56.507812 128.742188 56.628906 C 128.59375 56.742188 128.519531 56.882812 128.519531 57.050781 L 128.519531 57.078125 C 128.519531 57.1875 128.539062 57.285156 128.585938 57.371094 C 128.628906 57.453125 128.703125 57.523438 128.8125 57.589844 C 128.929688 57.65625 129.082031 57.71875 129.277344 57.777344 C 129.472656 57.839844 129.71875 57.90625 130.011719 57.980469 C 130.367188 58.078125 130.675781 58.183594 130.949219 58.300781 C 131.226562 58.414062 131.457031 58.550781 131.644531 58.714844 C 131.832031 58.878906 131.972656 59.070312 132.066406 59.285156 C 132.164062 59.503906 132.214844 59.765625 132.214844 60.070312 L 132.214844 60.085938 C 132.214844 60.433594 132.152344 60.742188 132.027344 61.007812 C 131.902344 61.273438 131.726562 61.5 131.503906 61.683594 C 131.28125 61.863281 131.011719 62.003906 130.699219 62.101562 C 130.386719 62.191406 130.046875 62.238281 129.671875 62.238281 Z M 129.671875 62.238281 " fill-opacity="1" fill-rule="nonzero"/><path fill="#ffffff" d="M 136.835938 56.601562 L 134.722656 56.601562 L 134.722656 55.199219 L 140.480469 55.199219 L 140.480469 56.601562 L 138.371094 56.601562 L 138.371094 62.140625 L 136.835938 62.140625 Z M 136.835938 56.601562 " fill-opacity="1" fill-rule="nonzero"/><path fill="#ffffff" d="M 145.703125 55.152344 L 147.113281 55.152344 L 150.082031 62.140625 L 148.492188 62.140625 L 147.855469 60.582031 L 144.921875 60.582031 L 144.285156 62.140625 L 142.726562 62.140625 Z M 147.3125 59.238281 L 146.390625 56.988281 L 145.46875 59.238281 Z M 147.3125 59.238281 " fill-opacity="1" fill-rule="nonzero"/><path fill="#ffffff" d="M 152.832031 55.199219 L 155.539062 55.199219 C 156.082031 55.199219 156.582031 55.289062 157.03125 55.460938 C 157.484375 55.636719 157.875 55.882812 158.199219 56.195312 C 158.53125 56.503906 158.78125 56.871094 158.957031 57.289062 C 159.136719 57.707031 159.226562 58.160156 159.226562 58.648438 L 159.226562 58.667969 C 159.226562 59.15625 159.136719 59.613281 158.957031 60.035156 C 158.78125 60.460938 158.53125 60.828125 158.199219 61.136719 C 157.875 61.449219 157.484375 61.691406 157.03125 61.871094 C 156.582031 62.050781 156.082031 62.140625 155.539062 62.140625 L 152.832031 62.140625 Z M 154.359375 56.578125 L 154.359375 60.761719 L 155.539062 60.761719 C 155.851562 60.761719 156.132812 60.714844 156.390625 60.617188 C 156.648438 60.515625 156.871094 60.371094 157.050781 60.183594 C 157.234375 60 157.378906 59.78125 157.480469 59.53125 C 157.582031 59.28125 157.636719 59 157.636719 58.691406 L 157.636719 58.667969 C 157.636719 58.363281 157.582031 58.082031 157.480469 57.828125 C 157.378906 57.570312 157.234375 57.351562 157.050781 57.164062 C 156.871094 56.980469 156.648438 56.835938 156.390625 56.734375 C 156.132812 56.632812 155.851562 56.578125 155.539062 56.578125 Z M 154.359375 56.578125 " fill-opacity="1" fill-rule="nonzero"/><path fill="#ffffff" d="M 162.335938 55.199219 L 163.863281 55.199219 L 163.863281 62.140625 L 162.335938 62.140625 Z M 162.335938 55.199219 " fill-opacity="1" fill-rule="nonzero"/><path fill="#ffffff" d="M 169.652344 55.152344 L 171.0625 55.152344 L 174.03125 62.140625 L 172.441406 62.140625 L 171.804688 60.582031 L 168.871094 60.582031 L 168.234375 62.140625 L 166.675781 62.140625 Z M 171.257812 59.238281 L 170.335938 56.988281 L 169.417969 59.238281 Z M 171.257812 59.238281 " fill-opacity="1" fill-rule="nonzero"/><path fill="#ffffff" d="M 179.25 62.238281 C 178.722656 62.238281 178.203125 62.148438 177.695312 61.96875 C 177.183594 61.785156 176.71875 61.503906 176.308594 61.128906 L 177.203125 60.046875 C 177.523438 60.304688 177.851562 60.515625 178.183594 60.664062 C 178.519531 60.816406 178.886719 60.894531 179.285156 60.894531 C 179.597656 60.894531 179.84375 60.835938 180.019531 60.722656 C 180.191406 60.605469 180.28125 60.441406 180.28125 60.242188 L 180.28125 60.214844 C 180.28125 60.117188 180.257812 60.03125 180.222656 59.957031 C 180.191406 59.878906 180.121094 59.808594 180.019531 59.742188 C 179.914062 59.679688 179.769531 59.613281 179.585938 59.546875 C 179.40625 59.476562 179.171875 59.40625 178.882812 59.335938 C 178.53125 59.25 178.210938 59.152344 177.929688 59.050781 C 177.648438 58.941406 177.40625 58.8125 177.203125 58.660156 C 177.007812 58.5 176.855469 58.308594 176.746094 58.078125 C 176.636719 57.847656 176.585938 57.558594 176.585938 57.214844 L 176.585938 57.191406 C 176.585938 56.875 176.644531 56.589844 176.765625 56.332031 C 176.882812 56.078125 177.050781 55.859375 177.261719 55.671875 C 177.476562 55.488281 177.734375 55.347656 178.027344 55.25 C 178.324219 55.152344 178.65625 55.101562 179.015625 55.101562 C 179.519531 55.101562 179.984375 55.179688 180.410156 55.332031 C 180.839844 55.484375 181.234375 55.703125 181.59375 55.984375 L 180.800781 57.132812 C 180.484375 56.921875 180.175781 56.757812 179.878906 56.636719 C 179.585938 56.511719 179.289062 56.449219 178.992188 56.449219 C 178.695312 56.449219 178.472656 56.507812 178.320312 56.628906 C 178.175781 56.742188 178.101562 56.882812 178.101562 57.050781 L 178.101562 57.078125 C 178.101562 57.1875 178.121094 57.285156 178.167969 57.371094 C 178.210938 57.453125 178.285156 57.523438 178.394531 57.589844 C 178.507812 57.65625 178.664062 57.71875 178.859375 57.777344 C 179.054688 57.839844 179.300781 57.90625 179.59375 57.980469 C 179.945312 58.078125 180.257812 58.183594 180.53125 58.300781 C 180.808594 58.414062 181.039062 58.550781 181.226562 58.714844 C 181.414062 58.878906 181.554688 59.070312 181.648438 59.285156 C 181.746094 59.503906 181.796875 59.765625 181.796875 60.070312 L 181.796875 60.085938 C 181.796875 60.433594 181.734375 60.742188 181.609375 61.007812 C 181.484375 61.273438 181.308594 61.5 181.085938 61.683594 C 180.863281 61.863281 180.59375 62.003906 180.28125 62.101562 C 179.96875 62.191406 179.625 62.238281 179.25 62.238281 Z M 179.25 62.238281 " fill-opacity="1" fill-rule="nonzero"/><path stroke-linecap="butt" transform="matrix(0, -0.3915, 0.3915, 0, 108.735209, 65.063377)" fill="none" stroke-linejoin="miter" d="M 0.00224002 3.001143 L 99.130211 3.001143 " stroke="#ffffff" stroke-width="6" stroke-opacity="1" stroke-miterlimit="4"/></svg>